<?xml version="1.0" encoding="utf-8"?>
<!-- Generator: Adobe Illustrator 27.5.0, SVG Export Plug-In . SVG Version: 6.00 Build 0)  -->
<svg version="1.1" xmlns="http://www.w3.org/2000/svg" xmlns:xlink="http://www.w3.org/1999/xlink" x="0px" y="0px"
	 viewBox="0 0 500 500" style="enable-background:new 0 0 500 500;" xml:space="preserve">
<g id="Background_Complete">
	<g>
		<g>
			<g>
				<g>
					<g>
						<g>
							<g>
								<path style="fill:#EBEBEB;" d="M141.041,389.675c0,0-12.297,9.368-0.516,21.746c0.201,0.212,0.487,0.331,0.779,0.33
									l107.435-0.627c0,0,9.175-10.29,1.562-22.148L141.041,389.675z"/>
							</g>
						</g>
					</g>
				</g>
			</g>
			<g>
				<g>
					<g>
						<g>
							<g>
								<g>
									<path style="fill:#E0E0E0;" d="M224.996,399.454c0,0.12-13.378,0.217-29.877,0.217c-16.505,0-29.88-0.097-29.88-0.217
										c0-0.12,13.375-0.217,29.88-0.217C211.617,399.237,224.996,399.334,224.996,399.454z"/>
								</g>
							</g>
						</g>
					</g>
				</g>
			</g>
			<g>
				<g>
					<g>
						<g>
							<g>
								<g>
									<path style="fill:#E0E0E0;" d="M208.285,403.34c0,0.12-6.29,0.217-14.047,0.217c-7.76,0-14.048-0.097-14.048-0.217
										c0-0.12,6.288-0.217,14.048-0.217C201.995,403.124,208.285,403.221,208.285,403.34z"/>
								</g>
							</g>
						</g>
					</g>
				</g>
			</g>
			<g>
				<g>
					<g>
						<g>
							<g>
								<g>
									<path style="fill:#E0E0E0;" d="M235.98,410.78c-0.07-0.019,0.236-1.234,0.569-3.224c0.335-1.988,0.646-4.763,0.62-7.838
										c-0.033-3.076-0.396-5.845-0.768-7.827c-0.37-1.983-0.699-3.192-0.63-3.212c0.029-0.008,0.138,0.286,0.312,0.827
										c0.179,0.539,0.393,1.333,0.618,2.324c0.453,1.98,0.869,4.775,0.902,7.884c0.026,3.108-0.337,5.91-0.752,7.898
										c-0.206,0.995-0.406,1.793-0.574,2.336C236.113,410.492,236.009,410.788,235.98,410.78z"/>
								</g>
							</g>
						</g>
					</g>
				</g>
			</g>
			<g>
				<g>
					<g>
						<g>
							<g>
								<g>
									<path style="fill:#E0E0E0;" d="M243.999,388.842c0.027-0.014,0.195,0.264,0.479,0.781c0.146,0.257,0.313,0.576,0.477,0.962
										c0.168,0.384,0.379,0.814,0.548,1.314c0.384,0.984,0.736,2.196,1.022,3.565c0.263,1.373,0.446,2.905,0.468,4.521
										c0.005,1.616-0.154,3.152-0.395,4.529c-0.264,1.374-0.597,2.591-0.965,3.581c-0.161,0.503-0.366,0.936-0.527,1.323
										c-0.158,0.388-0.32,0.711-0.462,0.97c-0.275,0.522-0.439,0.802-0.466,0.788c-0.075-0.036,0.524-1.194,1.164-3.179
										c0.327-0.99,0.623-2.197,0.862-3.552c0.215-1.359,0.359-2.868,0.355-4.456c-0.021-1.588-0.189-3.094-0.426-4.449
										c-0.26-1.351-0.576-2.553-0.919-3.537C244.542,390.027,243.925,388.88,243.999,388.842z"/>
								</g>
							</g>
						</g>
					</g>
				</g>
			</g>
			<g>
				<g>
					<g>
						<g>
							<g>
								<g>
									<path style="fill:#E0E0E0;" d="M157.992,410.923c-0.026,0.016-0.202-0.24-0.501-0.718
										c-0.154-0.237-0.331-0.534-0.502-0.896c-0.176-0.36-0.399-0.761-0.574-1.235c-0.401-0.928-0.762-2.082-1.048-3.389
										c-0.259-1.312-0.428-2.781-0.416-4.328c0.03-1.547,0.238-3.011,0.533-4.316c0.321-1.299,0.712-2.444,1.139-3.36
										c0.188-0.47,0.422-0.864,0.607-1.22c0.181-0.358,0.366-0.649,0.526-0.882c0.311-0.47,0.494-0.721,0.52-0.704
										c0.074,0.045-0.618,1.083-1.37,2.926c-0.384,0.917-0.738,2.05-1.031,3.329c-0.267,1.284-0.459,2.718-0.489,4.233
										c-0.011,1.515,0.142,2.953,0.375,4.244c0.259,1.286,0.582,2.428,0.941,3.355
										C157.404,409.823,158.067,410.88,157.992,410.923z"/>
								</g>
							</g>
						</g>
					</g>
				</g>
			</g>
			<g>
				<g>
					<g>
						<g>
							<g>
								<g>
									<path style="fill:#E0E0E0;" d="M146.392,413.544c-0.026,0.016-0.221-0.274-0.552-0.815
										c-0.171-0.268-0.368-0.602-0.561-1.009c-0.198-0.404-0.448-0.855-0.65-1.386c-0.457-1.04-0.88-2.33-1.23-3.792
										c-0.323-1.468-0.557-3.111-0.605-4.847c-0.029-1.737,0.132-3.39,0.39-4.87c0.285-1.476,0.651-2.784,1.061-3.843
										c0.178-0.539,0.408-1.001,0.587-1.413c0.176-0.415,0.358-0.758,0.516-1.033c0.308-0.554,0.489-0.852,0.516-0.838
										c0.078,0.04-0.61,1.263-1.33,3.386c-0.368,1.058-0.697,2.354-0.956,3.81c-0.232,1.461-0.378,3.084-0.35,4.792
										c0.048,1.707,0.265,3.322,0.562,4.77c0.323,1.443,0.709,2.723,1.124,3.764C145.727,412.31,146.468,413.501,146.392,413.544
										z"/>
								</g>
							</g>
						</g>
					</g>
				</g>
			</g>
		</g>
		<g>
			<g>
				<g>
					<g>
						<g>
							<g>
								<g>
									<path style="fill:#EBEBEB;" d="M244.799,443.844c0,0.814,0,20.559,0,20.559h-39.783v-20.559H244.799z"/>
								</g>
							</g>
						</g>
					</g>
				</g>
				<g>
					<g>
						<g>
							<g>
								<g>
									<path style="fill:#E0E0E0;" d="M116.316,454.314c0.007,0.181,0.015,0.363,0.024,0.545
										c0.323,6.221,5.605,11.032,11.834,11.032h118.48v-1.487h-28.126c-5.677,0-10.279-4.602-10.279-10.28l0,0
										c0-5.677,4.602-10.28,10.279-10.28h28.126v-2.184l-118.515,0.401C121.449,442.083,116.071,447.629,116.316,454.314z"/>
								</g>
							</g>
						</g>
					</g>
				</g>
				<g>
					<g>
						<g>
							<g>
								<g>
									<g>
										<path style="fill:#E0E0E0;" d="M244.799,454.398c0,0.12-8.18,0.217-18.268,0.217c-10.092,0-18.27-0.097-18.27-0.217
											c0-0.12,8.178-0.217,18.27-0.217C236.619,454.181,244.799,454.278,244.799,454.398z"/>
									</g>
								</g>
							</g>
						</g>
					</g>
				</g>
				<g>
					<g>
						<g>
							<g>
								<g>
									<g>
										<path style="fill:#E0E0E0;" d="M244.223,459.031c0,0.12-7.74,0.217-17.285,0.217c-9.549,0-17.287-0.097-17.287-0.217
											c0-0.12,7.738-0.217,17.287-0.217C236.483,458.814,244.223,458.911,244.223,459.031z"/>
									</g>
								</g>
							</g>
						</g>
					</g>
				</g>
				<g>
					<g>
						<g>
							<g>
								<g>
									<g>
										<path style="fill:#E0E0E0;" d="M244.799,463.267c0,0.12-6.959,0.217-15.541,0.217c-8.585,0-15.543-0.097-15.543-0.217
											c0-0.12,6.957-0.217,15.543-0.217C237.84,463.05,244.799,463.148,244.799,463.267z"/>
									</g>
								</g>
							</g>
						</g>
					</g>
				</g>
				<g>
					<g>
						<g>
							<g>
								<g>
									<g>
										<path style="fill:#E0E0E0;" d="M244.799,450.236c0,0.12-8.012,0.217-17.894,0.217c-9.885,0-17.895-0.097-17.895-0.217
											c0-0.12,8.011-0.217,17.895-0.217C236.787,450.019,244.799,450.116,244.799,450.236z"/>
									</g>
								</g>
							</g>
						</g>
					</g>
				</g>
				<g>
					<g>
						<g>
							<g>
								<g>
									<g>
										<path style="fill:#E0E0E0;" d="M244.223,446.073c0,0.12-7.132,0.217-15.927,0.217c-8.798,0-15.929-0.097-15.929-0.217
											c0-0.12,7.13-0.217,15.929-0.217C237.091,445.856,244.223,445.953,244.223,446.073z"/>
									</g>
								</g>
							</g>
						</g>
					</g>
				</g>
			</g>
			<g>
				<g>
					<g>
						<g>
							<g>
								<g>
									<path style="fill:#F5F5F5;" d="M130.671,442.404c0.066,0.067-1.158,0.993-2.517,2.993
										c-1.357,1.965-2.742,5.155-2.703,8.842c0.048,3.688,1.509,6.844,2.912,8.777c1.406,1.967,2.651,2.864,2.587,2.933
										c-0.015,0.019-0.332-0.189-0.855-0.631c-0.524-0.44-1.232-1.144-1.979-2.121c-1.494-1.923-3.049-5.15-3.098-8.953
										c-0.04-3.802,1.437-7.064,2.885-9.022c0.723-0.994,1.415-1.714,1.929-2.167
										C130.343,442.601,130.655,442.385,130.671,442.404z"/>
								</g>
							</g>
						</g>
					</g>
				</g>
			</g>
			<g>
				<g>
					<g>
						<g>
							<g>
								<g>
									<path style="fill:#F5F5F5;" d="M126.664,441.966c0.066,0.067-1.157,0.993-2.517,2.993
										c-1.357,1.966-2.742,5.155-2.703,8.842c0.048,3.688,1.509,6.844,2.912,8.777c1.406,1.967,2.651,2.864,2.587,2.933
										c-0.015,0.019-0.332-0.189-0.855-0.631c-0.524-0.44-1.232-1.144-1.979-2.121c-1.494-1.923-3.049-5.15-3.098-8.953
										c-0.04-3.802,1.437-7.064,2.885-9.022c0.724-0.994,1.415-1.714,1.929-2.167
										C126.337,442.162,126.649,441.947,126.664,441.966z"/>
								</g>
							</g>
						</g>
					</g>
				</g>
			</g>
			<g>
				<g>
					<g>
						<g>
							<g>
								<g>
									<path style="fill:#F5F5F5;" d="M207.169,442.404c0.066,0.067-1.157,0.993-2.517,2.993
										c-1.357,1.965-2.742,5.155-2.703,8.842c0.048,3.688,1.509,6.844,2.912,8.777c1.406,1.967,2.651,2.864,2.587,2.933
										c-0.015,0.019-0.332-0.189-0.855-0.631c-0.524-0.44-1.232-1.144-1.979-2.121c-1.494-1.923-3.049-5.15-3.098-8.953
										c-0.04-3.802,1.437-7.064,2.886-9.022c0.723-0.994,1.415-1.714,1.929-2.167
										C206.841,442.601,207.153,442.385,207.169,442.404z"/>
								</g>
							</g>
						</g>
					</g>
				</g>
			</g>
			<g>
				<g>
					<g>
						<g>
							<g>
								<g>
									<path style="fill:#F5F5F5;" d="M203.162,441.966c0.066,0.067-1.157,0.993-2.517,2.993
										c-1.357,1.966-2.742,5.155-2.704,8.842c0.048,3.688,1.509,6.844,2.912,8.777c1.406,1.967,2.651,2.864,2.587,2.933
										c-0.015,0.019-0.332-0.189-0.855-0.631c-0.524-0.44-1.232-1.144-1.979-2.121c-1.494-1.923-3.049-5.15-3.098-8.953
										c-0.04-3.802,1.437-7.064,2.886-9.022c0.723-0.994,1.415-1.714,1.929-2.167
										C202.835,442.162,203.147,441.947,203.162,441.966z"/>
								</g>
							</g>
						</g>
					</g>
				</g>
			</g>
			<g>
				<g>
					<g>
						<g>
							<g>
								<path style="fill:#F5F5F5;" d="M144.154,457.204c-0.038-2.786-0.075-5.573-0.113-8.359c-0.01-0.729-0.023-1.477-0.294-2.153
									c-0.271-0.677-0.861-1.276-1.587-1.34c-1.047-0.463-2.679,0.409-3.41,1.616c-0.731,1.206-0.811,2.686-0.822,4.096
									c-0.016,2.205,0.091,4.411,0.321,6.604c0.109,1.043,0.256,2.113,0.777,3.023c0.521,0.91,1.507,1.629,2.551,1.533
									c1.035-0.095,1.868-0.966,2.234-1.939C144.177,459.312,144.168,458.244,144.154,457.204z"/>
							</g>
						</g>
					</g>
				</g>
			</g>
			<g>
				<g>
					<g>
						<g>
							<g>
								<g>
									<path style="fill:#F5F5F5;" d="M190.169,454.8c0,0.12-8.565,0.217-19.129,0.217c-10.567,0-19.13-0.097-19.13-0.217
										c0-0.12,8.563-0.217,19.13-0.217C181.604,454.583,190.169,454.68,190.169,454.8z"/>
								</g>
							</g>
						</g>
					</g>
				</g>
			</g>
		</g>
		<g>
			<g>
				<g>
					<g>
						<g>
							<g>
								<g>
									<g>
										<polygon style="fill:#F5F5F5;" points="136.218,441.582 135.998,422.095 146.606,422.095 146.972,441.582 										"/>
									</g>
								</g>
							</g>
						</g>
					</g>
					<g>
						<g>
							<g>
								<g>
									<g>
										<g>
											<path style="fill:#E0E0E0;" d="M145.98,425.562c0,0.12-2.207,0.217-4.929,0.217c-2.723,0-4.93-0.097-4.93-0.217
												c0-0.12,2.207-0.217,4.93-0.217C143.772,425.345,145.98,425.442,145.98,425.562z"/>
										</g>
									</g>
								</g>
							</g>
						</g>
					</g>
					<g>
						<g>
							<g>
								<g>
									<g>
										<g>
											<path style="fill:#E0E0E0;" d="M145.98,428.57c0,0.12-2.207,0.217-4.929,0.217c-2.723,0-4.93-0.097-4.93-0.217
												c0-0.12,2.207-0.217,4.93-0.217C143.772,428.353,145.98,428.45,145.98,428.57z"/>
										</g>
									</g>
								</g>
							</g>
						</g>
					</g>
					<g>
						<g>
							<g>
								<g>
									<g>
										<g>
											<path style="fill:#E0E0E0;" d="M145.98,431.578c0,0.12-2.207,0.217-4.929,0.217c-2.723,0-4.93-0.097-4.93-0.217
												c0-0.12,2.207-0.217,4.93-0.217C143.772,431.361,145.98,431.458,145.98,431.578z"/>
										</g>
									</g>
								</g>
							</g>
						</g>
					</g>
					<g>
						<g>
							<g>
								<g>
									<g>
										<g>
											<path style="fill:#E0E0E0;" d="M145.98,434.585c0,0.12-2.207,0.217-4.929,0.217c-2.723,0-4.93-0.097-4.93-0.217
												c0-0.12,2.207-0.217,4.93-0.217C143.772,434.368,145.98,434.466,145.98,434.585z"/>
										</g>
									</g>
								</g>
							</g>
						</g>
					</g>
					<g>
						<g>
							<g>
								<g>
									<g>
										<g>
											<path style="fill:#E0E0E0;" d="M145.98,437.593c0,0.12-2.207,0.217-4.929,0.217c-2.723,0-4.93-0.097-4.93-0.217
												s2.207-0.217,4.93-0.217C143.772,437.376,145.98,437.473,145.98,437.593z"/>
										</g>
									</g>
								</g>
							</g>
						</g>
					</g>
				</g>
				<g>
					<g>
						<g>
							<g>
								<g>
									<path style="fill:#EBEBEB;" d="M135.435,421.579h117.571c1.451,6.453,1.247,13.555,0,21.064h-117.07v-1.433h7.154
										c1.866,0,3.378-1.513,3.378-3.378v-11.656c0-1.866-1.512-3.378-3.378-3.378h-7.655V421.579z"/>
								</g>
							</g>
						</g>
					</g>
				</g>
				<g>
					<g>
						<g>
							<g>
								<g>
									<path style="fill:#FAFAFA;" d="M163.23,432.123h1.962c0.074,0,0.145,0.018,0.212,0.053c0.14,0.081,0.211,0.204,0.211,0.369
										c0,0.049-0.005,0.091-0.016,0.126c-0.039,0.166-0.083,0.333-0.133,0.501c-0.274,0.897-0.684,1.637-1.229,2.22
										c-0.541,0.577-1.098,0.865-1.672,0.865c-0.077,0-0.156-0.005-0.237-0.016c-0.534-0.081-0.98-0.403-1.334-0.966
										c-0.391-0.629-0.586-1.417-0.586-2.362c0-0.556,0.077-1.116,0.233-1.683c0.249-0.914,0.638-1.672,1.165-2.273
										c0.552-0.626,1.141-0.939,1.767-0.939c0.264,0,0.511,0.056,0.743,0.169c0.507,0.249,0.889,0.727,1.145,1.432
										c0.032,0.064,0.047,0.129,0.047,0.195c0,0.073-0.019,0.144-0.058,0.211c-0.085,0.14-0.206,0.21-0.364,0.21
										c-0.042,0-0.086-0.007-0.132-0.02c-0.138-0.046-0.227-0.134-0.269-0.264l-0.021-0.037
										c-0.063-0.173-0.142-0.327-0.237-0.465c-0.257-0.374-0.57-0.56-0.939-0.56c-0.215,0-0.431,0.079-0.648,0.237
										c-0.412,0.295-0.769,0.808-1.071,1.539c-0.31,0.752-0.465,1.489-0.465,2.213c0,0.696,0.113,1.275,0.338,1.739
										c0.25,0.513,0.591,0.769,1.024,0.769c0.291-0.003,0.608-0.194,0.949-0.572c0.419-0.469,0.754-1.077,1.007-1.822
										c-0.903,0-1.373-0.006-1.408-0.016c-0.306-0.049-0.463-0.207-0.469-0.474c0.007-0.053,0.021-0.1,0.042-0.142
										C162.865,432.202,163.012,432.123,163.23,432.123z"/>
								</g>
							</g>
						</g>
					</g>
					<g>
						<g>
							<g>
								<g>
									<path style="fill:#FAFAFA;" d="M169.905,428.294c0.017,0.038,0.035,0.086,0.053,0.142c0.083,0.288,0.544,2.717,1.384,7.285
										c0.013,0.035,0.02,0.07,0.02,0.105c0,0.073-0.019,0.146-0.058,0.216c-0.084,0.144-0.2,0.216-0.351,0.216
										c-0.02,0-0.043-0.002-0.068-0.005c-0.168-0.029-0.276-0.125-0.325-0.29l-0.468-2.421h-2.415l-1.161,2.43
										c-0.01,0.027-0.023,0.054-0.038,0.081c-0.111,0.138-0.232,0.206-0.364,0.206c-0.082,0-0.159-0.023-0.229-0.068
										c-0.128-0.088-0.193-0.206-0.193-0.354c0-0.042,0.009-0.084,0.027-0.126c0.072-0.169,0.193-0.435,0.36-0.798
										c1.69-3.691,2.701-5.868,3.032-6.533c0.095-0.193,0.231-0.291,0.408-0.295
										C169.688,428.088,169.817,428.158,169.905,428.294z M169.379,429.923l-1.307,2.749h1.844L169.379,429.923z"/>
								</g>
							</g>
						</g>
					</g>
					<g>
						<g>
							<g>
								<g>
									<path style="fill:#FAFAFA;" d="M176.463,436.258h-3.543c-0.081,0-0.157-0.023-0.227-0.068
										c-0.102-0.074-0.168-0.222-0.2-0.443v-0.005c0-0.144,0.326-2.562,0.978-7.255c0.004-0.054,0.011-0.106,0.021-0.155
										c0.074-0.173,0.201-0.259,0.381-0.259c0.071,0,0.136,0.016,0.195,0.048c0.148,0.077,0.222,0.202,0.222,0.374
										c-0.031,0.32-0.111,0.983-0.241,1.989c-0.405,3.097-0.617,4.732-0.635,4.904h3.011c0.081,0,0.157,0.015,0.227,0.042
										c0.18,0.074,0.269,0.206,0.269,0.396c0,0.046-0.007,0.092-0.021,0.138C176.84,436.125,176.694,436.223,176.463,436.258z"/>
								</g>
							</g>
						</g>
					</g>
					<g>
						<g>
							<g>
								<g>
									<path style="fill:#FAFAFA;" d="M181.308,428.294c0.017,0.038,0.035,0.086,0.053,0.142c0.083,0.288,0.544,2.717,1.384,7.285
										c0.013,0.035,0.02,0.07,0.02,0.105c0,0.073-0.019,0.146-0.058,0.216c-0.084,0.144-0.2,0.216-0.351,0.216
										c-0.02,0-0.043-0.002-0.068-0.005c-0.168-0.029-0.276-0.125-0.325-0.29l-0.468-2.421h-2.415l-1.161,2.43
										c-0.01,0.027-0.023,0.054-0.038,0.081c-0.111,0.138-0.232,0.206-0.364,0.206c-0.082,0-0.159-0.023-0.229-0.068
										c-0.129-0.088-0.193-0.206-0.193-0.354c0-0.042,0.009-0.084,0.027-0.126c0.072-0.169,0.193-0.435,0.36-0.798
										c1.69-3.691,2.7-5.868,3.032-6.533c0.095-0.193,0.231-0.291,0.408-0.295C181.091,428.088,181.219,428.158,181.308,428.294z
										 M180.781,429.923l-1.307,2.749h1.845L180.781,429.923z"/>
								</g>
							</g>
						</g>
					</g>
					<g>
						<g>
							<g>
								<g>
									<path style="fill:#FAFAFA;" d="M186.954,432.476c0.276,0.767,0.49,1.359,0.64,1.776c0.365,1.01,0.548,1.543,0.548,1.599
										c0,0.076-0.023,0.148-0.068,0.215c-0.085,0.129-0.203,0.194-0.354,0.194c-0.158-0.003-0.274-0.098-0.351-0.285
										c-0.027-0.076-0.05-0.135-0.067-0.179c-0.193-0.441-0.509-1.273-0.948-2.498l-2.005,2.74
										c-0.111,0.145-0.236,0.219-0.375,0.222c-0.076,0-0.149-0.02-0.219-0.058c-0.133-0.081-0.2-0.199-0.2-0.354
										c0-0.035,0.002-0.064,0.006-0.089c0.011-0.064,0.081-0.177,0.211-0.342c0.672-0.868,1.414-1.902,2.227-3.103
										c-0.085-0.235-0.166-0.458-0.244-0.669c-0.753-2.021-1.13-3.066-1.13-3.133c0-0.077,0.018-0.149,0.053-0.216
										c0.077-0.14,0.191-0.211,0.343-0.211c0.183,0.004,0.315,0.082,0.395,0.234l1.182,3.189l2.364-3.218
										c0.101-0.13,0.227-0.197,0.377-0.2c0.07,0,0.134,0.015,0.194,0.047c0.137,0.076,0.205,0.203,0.205,0.377
										c0,0.059-0.015,0.124-0.042,0.194L186.954,432.476z"/>
								</g>
							</g>
						</g>
					</g>
					<g>
						<g>
							<g>
								<g>
									<path style="fill:#FAFAFA;" d="M195.723,428.11c0.067,0,0.132,0.015,0.195,0.047c0.141,0.077,0.216,0.199,0.227,0.364
										c-0.58,4.582-0.9,7.057-0.96,7.426c-0.133,0.78-0.386,1.425-0.759,1.935c-0.566,0.771-1.35,1.155-2.352,1.155
										c-0.324,0-0.701-0.1-1.134-0.301c-0.604-0.281-1.021-0.647-1.25-1.097c-0.032-0.064-0.047-0.132-0.047-0.206
										c0-0.073,0.02-0.144,0.058-0.211c0.085-0.141,0.206-0.211,0.364-0.211c0.127,0.003,0.234,0.061,0.322,0.174
										c0.524,0.685,1.129,1.03,1.814,1.033c0.544-0.003,1.014-0.242,1.408-0.714c0.447-0.544,0.707-1.286,0.781-2.228
										c-0.137,0.213-0.312,0.398-0.522,0.554c-0.383,0.277-0.807,0.416-1.271,0.416c-0.077,0-0.157-0.005-0.238-0.016
										c-0.541-0.077-0.989-0.4-1.345-0.966c-0.394-0.629-0.591-1.417-0.591-2.362c0-0.43,0.02-0.872,0.059-1.329
										c0.067-0.717,0.226-1.735,0.479-3.054c0.007-0.042,0.02-0.082,0.037-0.121c0.073-0.194,0.2-0.29,0.379-0.29
										c0.071,0,0.139,0.019,0.206,0.058c0.141,0.081,0.211,0.193,0.211,0.337c0,0.218-0.065,0.757-0.195,1.617
										c-0.186,1.264-0.28,2.087-0.28,2.47c0,0.786,0.106,1.427,0.316,1.922c0.242,0.576,0.592,0.864,1.05,0.864
										c0.046,0,0.093-0.006,0.142-0.016c0.344-0.07,0.698-0.352,1.06-0.848c0.415-0.569,0.706-1.22,0.876-1.954l0.538-4.04
										c0.007-0.063,0.024-0.123,0.053-0.179C195.431,428.188,195.554,428.11,195.723,428.11z"/>
								</g>
							</g>
						</g>
					</g>
				</g>
				<g>
					<g>
						<g>
							<g>
								<g>
									<g>
										<path style="fill:#F5F5F5;" d="M248.59,442.917c-0.12,0-0.217-4.838-0.217-10.805c0-5.969,0.097-10.806,0.217-10.806
											c0.12,0,0.217,4.837,0.217,10.806C248.807,438.078,248.71,442.917,248.59,442.917z"/>
									</g>
								</g>
							</g>
						</g>
					</g>
				</g>
				<g>
					<g>
						<g>
							<g>
								<g>
									<g>
										<path style="fill:#E0E0E0;" d="M152.381,442.917c-0.12,0-0.217-4.838-0.217-10.805c0-5.969,0.097-10.806,0.217-10.806
											c0.12,0,0.217,4.837,0.217,10.806C152.598,438.078,152.501,442.917,152.381,442.917z"/>
									</g>
								</g>
							</g>
						</g>
					</g>
				</g>
				<g>
					<g>
						<g>
							<g>
								<g>
									<g>
										<path style="fill:#F5F5F5;" d="M250.653,442.917c-0.12,0-0.217-4.838-0.217-10.805c0-5.969,0.097-10.806,0.217-10.806
											c0.12,0,0.217,4.837,0.217,10.806C250.87,438.078,250.773,442.917,250.653,442.917z"/>
									</g>
								</g>
							</g>
						</g>
					</g>
				</g>
				<g>
					<g>
						<g>
							<g>
								<g>
									<g>
										<path style="fill:#E0E0E0;" d="M150.453,442.917c-0.12,0-0.217-4.838-0.217-10.805c0-5.969,0.097-10.806,0.217-10.806
											c0.12,0,0.217,4.837,0.217,10.806C150.67,438.078,150.573,442.917,150.453,442.917z"/>
									</g>
								</g>
							</g>
						</g>
					</g>
				</g>
			</g>
			<g>
				<g>
					<g>
						<g>
							<g>
								<g>
									<g>
										<g>
											<g>
												<g>
													<g>
														<path style="fill:#E0E0E0;" d="M220.082,424.865l-0.019-0.038c3.211,2.59,7.574,6.11,12.427,10.025l0.11,0.089
															l-0.137,0.036c-0.525,0.138-1.087,0.286-1.653,0.435c-3.774,0.99-7.347,1.928-10.491,2.753l-0.021,0.006l-0.02-0.009
															c-3.899-1.653-7.188-3.048-9.509-4.032c-1.151-0.493-2.062-0.883-2.691-1.153c-0.306-0.134-0.543-0.237-0.71-0.31
															c-0.076-0.035-0.136-0.061-0.182-0.082c-0.04-0.019-0.061-0.029-0.06-0.031c0.001-0.002,0.022,0.006,0.064,0.021
															c0.047,0.018,0.108,0.042,0.186,0.072c0.169,0.069,0.409,0.166,0.718,0.292c0.633,0.262,1.548,0.641,2.705,1.119
															c2.326,0.973,5.622,2.351,9.529,3.985l-0.041-0.003c3.143-0.829,6.715-1.771,10.488-2.767
															c0.566-0.149,1.128-0.297,1.654-0.435l-0.027,0.125c-4.842-3.927-9.197-7.459-12.401-10.057l-0.018-0.014
															l-0.001-0.023"/>
													</g>
												</g>
											</g>
										</g>
									</g>
								</g>
							</g>
						</g>
					</g>
				</g>
				<g>
					<g>
						<g>
							<g>
								<g>
									<g>
										<g>
											<g>
												<g>
													<polygon style="fill:#E0E0E0;" points="231.367,433.292 232.044,433.93 232.953,433.733 232.556,434.574 
														233.024,435.379 232.101,435.261 231.481,435.954 231.308,435.04 230.457,434.665 231.273,434.218 													"/>
												</g>
											</g>
										</g>
									</g>
								</g>
							</g>
						</g>
					</g>
				</g>
				<g>
					<g>
						<g>
							<g>
								<g>
									<g>
										<g>
											<g>
												<g>
													<polygon style="fill:#E0E0E0;" points="219.447,437.243 219.91,437.628 220.489,437.466 220.266,438.025 
														220.6,438.526 219.999,438.486 219.626,438.958 219.478,438.375 218.913,438.166 219.423,437.845 													"/>
												</g>
											</g>
										</g>
									</g>
								</g>
							</g>
						</g>
					</g>
				</g>
				<g>
					<g>
						<g>
							<g>
								<g>
									<g>
										<g>
											<g>
												<g>
													<polygon style="fill:#E0E0E0;" points="206.281,431.841 207.019,431.887 207.475,431.306 207.659,432.022 
														208.353,432.276 207.729,432.672 207.702,433.41 207.132,432.94 206.421,433.142 206.693,432.454 													"/>
												</g>
											</g>
										</g>
									</g>
								</g>
							</g>
						</g>
					</g>
				</g>
				<g>
					<g>
						<g>
							<g>
								<g>
									<g>
										<g>
											<g>
												<g>
													<polygon style="fill:#E0E0E0;" points="236.938,425.023 237.675,425.069 238.132,424.488 238.316,425.203 
														239.009,425.457 238.386,425.854 238.358,426.592 237.789,426.121 237.078,426.323 237.35,425.636 													"/>
												</g>
											</g>
										</g>
									</g>
								</g>
							</g>
						</g>
					</g>
				</g>
				<g>
					<g>
						<g>
							<g>
								<g>
									<g>
										<g>
											<g>
												<g>
													<polygon style="fill:#E0E0E0;" points="219.48,424.538 219.951,424.568 220.242,424.197 220.36,424.654 
														220.802,424.816 220.404,425.069 220.387,425.54 220.023,425.239 219.57,425.368 219.743,424.93 													"/>
												</g>
											</g>
										</g>
									</g>
								</g>
							</g>
						</g>
					</g>
				</g>
				<g>
					<g>
						<g>
							<g>
								<g>
									<g>
										<path style="fill:#E0E0E0;" d="M237.974,425.54c-0.002,0.048-4.022-0.085-8.977-0.297
											c-4.957-0.212-8.973-0.423-8.971-0.471c0.002-0.048,4.021,0.085,8.978,0.297
											C233.959,425.281,237.976,425.492,237.974,425.54z"/>
									</g>
								</g>
							</g>
						</g>
					</g>
				</g>
			</g>
		</g>
		<g>
			<g>
				<g>
					<g>
						<g>
							<g>
								<path style="fill:#E0E0E0;" d="M242.489,421.396H123.248c-1.562-3.544-1.945-6.91,0-9.926h119.241
									C244.052,415.082,243.921,418.365,242.489,421.396z"/>
							</g>
						</g>
					</g>
				</g>
			</g>
			<g>
				<g>
					<g>
						<g>
							<g>
								<rect x="147.938" y="414.307" style="fill:#EBEBEB;" width="64.601" height="3.612"/>
							</g>
						</g>
					</g>
				</g>
			</g>
			<g>
				<g>
					<g>
						<g>
							<g>
								<g>
									<path style="fill:#E0E0E0;" d="M127.824,421.45c-0.036,0.031-0.463-0.379-0.942-1.2c-0.479-0.815-0.958-2.07-1.089-3.523
										c-0.125-1.453,0.127-2.773,0.457-3.659c0.328-0.892,0.677-1.37,0.718-1.346c0.064,0.033-0.183,0.555-0.425,1.438
										c-0.245,0.881-0.436,2.141-0.317,3.529c0.125,1.387,0.534,2.595,0.928,3.419
										C127.547,420.935,127.882,421.406,127.824,421.45z"/>
								</g>
							</g>
						</g>
					</g>
				</g>
			</g>
			<g>
				<g>
					<g>
						<g>
							<g>
								<g>
									<path style="fill:#E0E0E0;" d="M130.405,421.45c-0.036,0.031-0.463-0.379-0.942-1.2c-0.48-0.815-0.958-2.07-1.089-3.523
										c-0.125-1.453,0.127-2.773,0.457-3.659c0.328-0.892,0.677-1.37,0.718-1.346c0.064,0.033-0.183,0.555-0.425,1.438
										c-0.245,0.881-0.436,2.141-0.318,3.529c0.125,1.387,0.534,2.595,0.929,3.419
										C130.127,420.935,130.462,421.406,130.405,421.45z"/>
								</g>
							</g>
						</g>
					</g>
				</g>
			</g>
			<g>
				<g>
					<g>
						<g>
							<g>
								<g>
									<path style="fill:#F5F5F5;" d="M237.664,421.218c-0.132-0.046,0.842-2.114,0.839-4.852
										c0.035-2.739-0.915-4.818-0.783-4.862c0.078-0.07,1.249,2.009,1.217,4.865
										C238.936,419.223,237.741,421.289,237.664,421.218z"/>
								</g>
							</g>
						</g>
					</g>
				</g>
			</g>
			<g>
				<g>
					<g>
						<g>
							<g>
								<g>
									<path style="fill:#F5F5F5;" d="M235.445,421.194c-0.13-0.03,0.372-2.125,0.358-4.753c0.007-2.628-0.501-4.721-0.37-4.752
										c0.099-0.038,0.81,2.055,0.804,4.751C236.249,419.137,235.545,421.232,235.445,421.194z"/>
								</g>
							</g>
						</g>
					</g>
				</g>
			</g>
		</g>
	</g>
	<g>
		<g>
			<g>
				<rect x="285.878" y="35.849" style="fill:#FFFFFF;" width="184.996" height="184.996"/>
			</g>
			<g>
				<rect x="285.878" y="220.306" style="fill:#EBEBEB;" width="185.193" height="0.539"/>
			</g>
			<g>
				<rect x="285.878" y="189.331" style="fill:#EBEBEB;" width="185.193" height="0.539"/>
			</g>
			<g>
				<rect x="285.878" y="158.357" style="fill:#EBEBEB;" width="185.193" height="0.539"/>
			</g>
			<g>
				<rect x="285.878" y="127.384" style="fill:#EBEBEB;" width="185.193" height="0.539"/>
			</g>
			<g>
				<rect x="285.878" y="96.41" style="fill:#EBEBEB;" width="185.193" height="0.539"/>
			</g>
			<g>
				<rect x="285.878" y="65.436" style="fill:#EBEBEB;" width="185.193" height="0.539"/>
			</g>
			<g>
				<rect x="470.54" y="35.849" style="fill:#EBEBEB;" width="0.531" height="184.726"/>
			</g>
			<g>
				<rect x="439.547" y="35.849" style="fill:#EBEBEB;" width="0.531" height="184.726"/>
			</g>
			<g>
				<rect x="408.556" y="35.849" style="fill:#EBEBEB;" width="0.531" height="184.726"/>
			</g>
			<g>
				<rect x="377.564" y="35.849" style="fill:#EBEBEB;" width="0.531" height="184.726"/>
			</g>
			<g>
				<rect x="346.571" y="35.849" style="fill:#EBEBEB;" width="0.531" height="184.726"/>
			</g>
			<g>
				<rect x="315.58" y="35.849" style="fill:#EBEBEB;" width="0.531" height="184.726"/>
			</g>
			<g>
				<rect x="285.878" y="220.44" style="fill:#EBEBEB;" width="185.193" height="0.271"/>
			</g>
			<g>
				<rect x="285.878" y="212.697" style="fill:#EBEBEB;" width="185.193" height="0.271"/>
			</g>
			<g>
				<rect x="285.878" y="204.953" style="fill:#EBEBEB;" width="185.193" height="0.271"/>
			</g>
			<g>
				<rect x="285.878" y="197.21" style="fill:#EBEBEB;" width="185.193" height="0.271"/>
			</g>
			<g>
				<rect x="285.878" y="189.466" style="fill:#E0E0E0;" width="185.193" height="0.271"/>
			</g>
			<g>
				<rect x="285.878" y="181.723" style="fill:#EBEBEB;" width="185.193" height="0.271"/>
			</g>
			<g>
				<rect x="285.878" y="173.979" style="fill:#EBEBEB;" width="185.193" height="0.271"/>
			</g>
			<g>
				<rect x="285.878" y="166.236" style="fill:#EBEBEB;" width="185.193" height="0.271"/>
			</g>
			<g>
				<rect x="285.878" y="158.492" style="fill:#E0E0E0;" width="185.193" height="0.271"/>
			</g>
			<g>
				<rect x="285.878" y="150.748" style="fill:#EBEBEB;" width="185.193" height="0.271"/>
			</g>
			<g>
				<rect x="285.878" y="143.006" style="fill:#EBEBEB;" width="185.193" height="0.271"/>
			</g>
			<g>
				<rect x="285.878" y="135.262" style="fill:#EBEBEB;" width="185.193" height="0.271"/>
			</g>
			<g>
				<rect x="285.878" y="127.519" style="fill:#E0E0E0;" width="185.193" height="0.271"/>
			</g>
			<g>
				<rect x="285.878" y="119.775" style="fill:#EBEBEB;" width="185.193" height="0.271"/>
			</g>
			<g>
				<rect x="285.878" y="112.032" style="fill:#EBEBEB;" width="185.193" height="0.271"/>
			</g>
			<g>
				<rect x="285.878" y="104.288" style="fill:#EBEBEB;" width="185.193" height="0.271"/>
			</g>
			<g>
				<rect x="285.878" y="96.545" style="fill:#E0E0E0;" width="185.193" height="0.271"/>
			</g>
			<g>
				<rect x="285.878" y="88.801" style="fill:#EBEBEB;" width="185.193" height="0.271"/>
			</g>
			<g>
				<rect x="285.878" y="81.058" style="fill:#EBEBEB;" width="185.193" height="0.271"/>
			</g>
			<g>
				<rect x="285.878" y="73.314" style="fill:#EBEBEB;" width="185.193" height="0.271"/>
			</g>
			<g>
				<rect x="285.878" y="65.571" style="fill:#E0E0E0;" width="185.193" height="0.271"/>
			</g>
			<g>
				<rect x="285.878" y="57.827" style="fill:#EBEBEB;" width="185.193" height="0.271"/>
			</g>
			<g>
				<rect x="285.878" y="50.084" style="fill:#EBEBEB;" width="185.193" height="0.271"/>
			</g>
			<g>
				<rect x="285.878" y="42.341" style="fill:#EBEBEB;" width="185.193" height="0.271"/>
			</g>
			<g>
				<rect x="470.673" y="35.849" style="fill:#EBEBEB;" width="0.266" height="184.726"/>
			</g>
			<g>
				<rect x="462.923" y="35.849" style="fill:#EBEBEB;" width="0.266" height="184.726"/>
			</g>
			<g>
				<rect x="455.175" y="35.849" style="fill:#EBEBEB;" width="0.266" height="184.726"/>
			</g>
			<g>
				<rect x="447.427" y="35.849" style="fill:#EBEBEB;" width="0.266" height="184.726"/>
			</g>
			<g>
				<rect x="439.68" y="35.849" style="fill:#E0E0E0;" width="0.266" height="184.726"/>
			</g>
			<g>
				<rect x="431.932" y="35.849" style="fill:#EBEBEB;" width="0.266" height="184.726"/>
			</g>
			<g>
				<rect x="424.184" y="35.849" style="fill:#EBEBEB;" width="0.266" height="184.726"/>
			</g>
			<g>
				<rect x="416.436" y="35.849" style="fill:#EBEBEB;" width="0.266" height="184.726"/>
			</g>
			<g>
				<rect x="408.688" y="35.849" style="fill:#E0E0E0;" width="0.266" height="184.726"/>
			</g>
			<g>
				<rect x="400.941" y="35.849" style="fill:#EBEBEB;" width="0.266" height="184.726"/>
			</g>
			<g>
				<rect x="393.193" y="35.849" style="fill:#EBEBEB;" width="0.266" height="184.726"/>
			</g>
			<g>
				<rect x="385.445" y="35.849" style="fill:#EBEBEB;" width="0.266" height="184.726"/>
			</g>
			<g>
				<rect x="377.697" y="35.849" style="fill:#E0E0E0;" width="0.266" height="184.726"/>
			</g>
			<g>
				<rect x="369.949" y="35.849" style="fill:#EBEBEB;" width="0.266" height="184.726"/>
			</g>
			<g>
				<rect x="362.2" y="35.849" style="fill:#EBEBEB;" width="0.266" height="184.726"/>
			</g>
			<g>
				<rect x="354.452" y="35.849" style="fill:#EBEBEB;" width="0.266" height="184.726"/>
			</g>
			<g>
				<rect x="346.704" y="35.849" style="fill:#E0E0E0;" width="0.266" height="184.726"/>
			</g>
			<g>
				<rect x="338.956" y="35.849" style="fill:#EBEBEB;" width="0.266" height="184.726"/>
			</g>
			<g>
				<rect x="331.209" y="35.849" style="fill:#EBEBEB;" width="0.266" height="184.726"/>
			</g>
			<g>
				<rect x="323.461" y="35.849" style="fill:#EBEBEB;" width="0.266" height="184.726"/>
			</g>
			<g>
				<rect x="315.713" y="35.849" style="fill:#E0E0E0;" width="0.266" height="184.726"/>
			</g>
			<g>
				<rect x="307.965" y="35.849" style="fill:#EBEBEB;" width="0.266" height="184.726"/>
			</g>
			<g>
				<rect x="300.217" y="35.849" style="fill:#EBEBEB;" width="0.266" height="184.726"/>
			</g>
			<g>
				<rect x="292.469" y="35.849" style="fill:#EBEBEB;" width="0.266" height="184.726"/>
			</g>
		</g>
		<g>
			<g>
				<path style="fill:#E0E0E0;" d="M470.874,220.845c0,0-0.008-0.298-0.013-0.871c-0.003-0.579-0.007-1.43-0.013-2.551
					c-0.006-2.253-0.015-5.583-0.026-9.925c-0.014-8.687-0.034-21.415-0.059-37.611c-0.028-32.367-0.067-78.589-0.115-134.037
					l0.225,0.225c-53.768,0.01-117.249,0.022-184.978,0.035h-0.018l0.26-0.26c-0.013,67.744-0.025,131.229-0.035,184.995
					l-0.225-0.225c55.455,0.048,101.676,0.087,134.042,0.115c16.195,0.025,28.922,0.045,37.608,0.059
					c4.342,0.011,7.672,0.02,9.924,0.026c1.121,0.006,1.972,0.01,2.551,0.013C470.576,220.837,470.874,220.845,470.874,220.845
					s-0.281,0.009-0.846,0.013c-0.573,0.003-1.416,0.007-2.527,0.013c-2.242,0.006-5.558,0.015-9.88,0.026
					c-8.674,0.014-21.384,0.034-37.557,0.059c-32.4,0.028-78.671,0.067-134.186,0.115l-0.225,0v-0.225
					c-0.01-53.767-0.022-117.252-0.035-184.995l0-0.26h0.261h0.018c67.729,0.013,131.21,0.025,184.978,0.035l0.226,0l0,0.225
					c-0.047,55.507-0.087,101.779-0.115,134.181c-0.025,16.174-0.045,28.885-0.059,37.56c-0.012,4.323-0.02,7.639-0.026,9.882
					c-0.006,1.111-0.01,1.954-0.013,2.527C470.882,220.564,470.874,220.845,470.874,220.845z"/>
			</g>
		</g>
	</g>
	<g>
		<g>
			<g>
				<rect x="35.626" y="36.521" style="fill:#FFFFFF;" width="101.455" height="101.455"/>
			</g>
			<g>
				<rect x="35.626" y="137.68" style="fill:#EBEBEB;" width="101.563" height="0.296"/>
			</g>
			<g>
				<rect x="35.626" y="120.693" style="fill:#EBEBEB;" width="101.563" height="0.296"/>
			</g>
			<g>
				<rect x="35.626" y="103.706" style="fill:#EBEBEB;" width="101.563" height="0.296"/>
			</g>
			<g>
				<rect x="35.626" y="86.72" style="fill:#EBEBEB;" width="101.563" height="0.296"/>
			</g>
			<g>
				<rect x="35.626" y="69.734" style="fill:#EBEBEB;" width="101.563" height="0.296"/>
			</g>
			<g>
				<rect x="35.626" y="52.747" style="fill:#EBEBEB;" width="101.563" height="0.296"/>
			</g>
			<g>
				<rect x="136.898" y="36.521" style="fill:#EBEBEB;" width="0.292" height="101.307"/>
			</g>
			<g>
				<rect x="119.901" y="36.521" style="fill:#EBEBEB;" width="0.291" height="101.307"/>
			</g>
			<g>
				<rect x="102.904" y="36.521" style="fill:#EBEBEB;" width="0.292" height="101.307"/>
			</g>
			<g>
				<rect x="85.908" y="36.521" style="fill:#EBEBEB;" width="0.292" height="101.307"/>
			</g>
			<g>
				<rect x="68.911" y="36.521" style="fill:#EBEBEB;" width="0.292" height="101.307"/>
			</g>
			<g>
				<rect x="51.915" y="36.521" style="fill:#EBEBEB;" width="0.292" height="101.307"/>
			</g>
			<g>
				<rect x="35.626" y="137.753" style="fill:#EBEBEB;" width="101.563" height="0.148"/>
			</g>
			<g>
				<rect x="35.626" y="133.507" style="fill:#EBEBEB;" width="101.563" height="0.148"/>
			</g>
			<g>
				<rect x="35.626" y="129.26" style="fill:#EBEBEB;" width="101.563" height="0.148"/>
			</g>
			<g>
				<rect x="35.626" y="125.014" style="fill:#EBEBEB;" width="101.563" height="0.148"/>
			</g>
			<g>
				<rect x="35.626" y="120.767" style="fill:#E0E0E0;" width="101.563" height="0.148"/>
			</g>
			<g>
				<rect x="35.626" y="116.52" style="fill:#EBEBEB;" width="101.563" height="0.148"/>
			</g>
			<g>
				<rect x="35.626" y="112.274" style="fill:#EBEBEB;" width="101.563" height="0.148"/>
			</g>
			<g>
				<rect x="35.626" y="108.027" style="fill:#EBEBEB;" width="101.563" height="0.148"/>
			</g>
			<g>
				<rect x="35.626" y="103.78" style="fill:#E0E0E0;" width="101.563" height="0.148"/>
			</g>
			<g>
				<rect x="35.626" y="99.534" style="fill:#EBEBEB;" width="101.563" height="0.148"/>
			</g>
			<g>
				<rect x="35.626" y="95.287" style="fill:#EBEBEB;" width="101.563" height="0.148"/>
			</g>
			<g>
				<rect x="35.626" y="91.041" style="fill:#EBEBEB;" width="101.563" height="0.148"/>
			</g>
			<g>
				<rect x="35.626" y="86.794" style="fill:#E0E0E0;" width="101.563" height="0.148"/>
			</g>
			<g>
				<rect x="35.626" y="82.547" style="fill:#EBEBEB;" width="101.563" height="0.148"/>
			</g>
			<g>
				<rect x="35.626" y="78.301" style="fill:#EBEBEB;" width="101.563" height="0.148"/>
			</g>
			<g>
				<rect x="35.626" y="74.054" style="fill:#EBEBEB;" width="101.563" height="0.148"/>
			</g>
			<g>
				<rect x="35.626" y="69.807" style="fill:#E0E0E0;" width="101.563" height="0.148"/>
			</g>
			<g>
				<rect x="35.626" y="65.561" style="fill:#EBEBEB;" width="101.563" height="0.148"/>
			</g>
			<g>
				<rect x="35.626" y="61.314" style="fill:#EBEBEB;" width="101.563" height="0.148"/>
			</g>
			<g>
				<rect x="35.626" y="57.067" style="fill:#EBEBEB;" width="101.563" height="0.148"/>
			</g>
			<g>
				<rect x="35.626" y="52.821" style="fill:#E0E0E0;" width="101.563" height="0.148"/>
			</g>
			<g>
				<rect x="35.626" y="48.574" style="fill:#EBEBEB;" width="101.563" height="0.148"/>
			</g>
			<g>
				<rect x="35.626" y="44.328" style="fill:#EBEBEB;" width="101.563" height="0.148"/>
			</g>
			<g>
				<rect x="35.626" y="40.081" style="fill:#EBEBEB;" width="101.563" height="0.148"/>
			</g>
			<g>
				<rect x="136.97" y="36.521" style="fill:#EBEBEB;" width="0.146" height="101.307"/>
			</g>
			<g>
				<rect x="132.72" y="36.521" style="fill:#EBEBEB;" width="0.146" height="101.307"/>
			</g>
			<g>
				<rect x="128.471" y="36.521" style="fill:#EBEBEB;" width="0.146" height="101.307"/>
			</g>
			<g>
				<rect x="124.222" y="36.521" style="fill:#EBEBEB;" width="0.146" height="101.307"/>
			</g>
			<g>
				<rect x="119.973" y="36.521" style="fill:#E0E0E0;" width="0.146" height="101.307"/>
			</g>
			<g>
				<rect x="115.724" y="36.521" style="fill:#EBEBEB;" width="0.146" height="101.307"/>
			</g>
			<g>
				<rect x="111.475" y="36.521" style="fill:#EBEBEB;" width="0.146" height="101.307"/>
			</g>
			<g>
				<rect x="107.226" y="36.521" style="fill:#EBEBEB;" width="0.146" height="101.307"/>
			</g>
			<g>
				<rect x="102.977" y="36.521" style="fill:#E0E0E0;" width="0.146" height="101.307"/>
			</g>
			<g>
				<rect x="98.728" y="36.521" style="fill:#EBEBEB;" width="0.146" height="101.307"/>
			</g>
			<g>
				<rect x="94.479" y="36.521" style="fill:#EBEBEB;" width="0.146" height="101.307"/>
			</g>
			<g>
				<rect x="90.23" y="36.521" style="fill:#EBEBEB;" width="0.146" height="101.307"/>
			</g>
			<g>
				<rect x="85.981" y="36.521" style="fill:#E0E0E0;" width="0.146" height="101.307"/>
			</g>
			<g>
				<rect x="81.732" y="36.521" style="fill:#EBEBEB;" width="0.146" height="101.307"/>
			</g>
			<g>
				<rect x="77.482" y="36.521" style="fill:#EBEBEB;" width="0.146" height="101.307"/>
			</g>
			<g>
				<rect x="73.233" y="36.521" style="fill:#EBEBEB;" width="0.146" height="101.307"/>
			</g>
			<g>
				<rect x="68.984" y="36.521" style="fill:#E0E0E0;" width="0.146" height="101.307"/>
			</g>
			<g>
				<rect x="64.735" y="36.521" style="fill:#EBEBEB;" width="0.146" height="101.307"/>
			</g>
			<g>
				<rect x="60.486" y="36.521" style="fill:#EBEBEB;" width="0.146" height="101.307"/>
			</g>
			<g>
				<rect x="56.237" y="36.521" style="fill:#EBEBEB;" width="0.146" height="101.307"/>
			</g>
			<g>
				<rect x="51.988" y="36.521" style="fill:#E0E0E0;" width="0.146" height="101.307"/>
			</g>
			<g>
				<rect x="47.739" y="36.521" style="fill:#EBEBEB;" width="0.146" height="101.307"/>
			</g>
			<g>
				<rect x="43.49" y="36.521" style="fill:#EBEBEB;" width="0.146" height="101.307"/>
			</g>
			<g>
				<rect x="39.241" y="36.521" style="fill:#EBEBEB;" width="0.146" height="101.307"/>
			</g>
		</g>
		<g>
			<g>
				<path style="fill:#E0E0E0;" d="M137.081,137.976c0,0-0.008-0.167-0.013-0.483c-0.003-0.327-0.007-0.793-0.013-1.405
					c-0.006-1.246-0.015-3.073-0.026-5.453c-0.014-4.775-0.033-11.756-0.059-20.638c-0.028-17.751-0.067-43.085-0.115-73.475
					l0.225,0.225c-29.489,0.01-64.302,0.022-101.445,0.035h-0.01l0.26-0.26c-0.013,37.151-0.025,71.966-0.035,101.454l-0.225-0.225
					c30.394,0.048,55.729,0.087,73.478,0.115c8.881,0.025,15.862,0.045,20.636,0.059c2.38,0.011,4.206,0.02,5.452,0.026
					c0.611,0.005,1.078,0.01,1.404,0.013C136.914,137.967,137.081,137.976,137.081,137.976s-0.15,0.009-0.458,0.013
					c-0.321,0.003-0.779,0.007-1.38,0.013c-1.236,0.006-3.048,0.015-5.409,0.026c-4.763,0.014-11.726,0.034-20.585,0.059
					c-17.784,0.028-43.168,0.067-73.622,0.115l-0.225,0l0-0.226c-0.01-29.488-0.022-64.303-0.035-101.454v-0.26h0.261h0.01
					c37.143,0.013,71.956,0.025,101.445,0.035l0.226,0l0,0.225c-0.048,30.45-0.087,55.834-0.115,73.619
					c-0.025,8.86-0.045,15.824-0.059,20.587c-0.011,2.361-0.02,4.173-0.026,5.41c-0.006,0.601-0.01,1.06-0.013,1.381
					C137.089,137.826,137.081,137.976,137.081,137.976z"/>
			</g>
		</g>
	</g>
	<g>
		<g>
			<g>
				<g>
					<g>
						<path style="fill:#E0E0E0;" d="M55.714,328.165l6.91-37.839l-1.861-1.412L44.339,310.56c0.935,1.057,1.078,2.627,0.193,3.793
							c-1.009,1.329-2.904,1.589-4.233,0.581c-1.329-1.009-1.589-2.904-0.58-4.233c0.886-1.167,2.436-1.451,3.705-0.835
							l16.425-21.645l-1.756-1.333l-35.503,17.065c10.052,8.55,3.45,19.405,3.45,19.405l10.107,7.807
							C43.852,321.01,55.714,328.165,55.714,328.165z"/>
					</g>
				</g>
			</g>
		</g>
		<g>
			<polygon style="fill:#E0E0E0;" points="21.095,322.414 37.836,335.327 32.982,341.931 16.149,328.431 			"/>
		</g>
	</g>
</g>
<g id="Background_Simple" style="display:none;">
	<g style="display:inline;">
		<path style="fill:#F5F5F5;" d="M434.384,98.851l-2.434-4.01c-20.516-33.808-57.609-54.188-96.717-51.715
			c-5.027,0.318-10.033,0.998-14.971,2.056c-35.557,7.611-66.496,34.5-79.321,68.937c-7.542,20.253-9.649,43.572-23.962,59.647
			c-18.627,20.922-50.251,21.579-78.055,20.712c-27.804-0.867-59.449-0.128-77.985,20.877
			c-11.609,13.154-15.299,31.861-14.362,49.478c2.478,46.641,34.979,88.345,76.311,109.074
			c41.332,20.729,89.996,22.586,135.232,13.467c63.37-12.774,123.634-47.855,159.857-102.039
			C454.199,231.152,463.367,157.332,434.384,98.851z"/>
	</g>
</g>
<g id="Table">
	<g>
		<g>
			<path style="fill:#263238;" d="M463.218,466.783c0,0.144-95.916,0.26-214.208,0.26c-118.333,0-214.229-0.117-214.229-0.26
				c0-0.144,95.896-0.26,214.229-0.26C367.302,466.522,463.218,466.639,463.218,466.783z"/>
		</g>
	</g>
</g>
<g id="Window">
	<g>
		<g>
			<rect x="78.799" y="317.767" style="fill:#FFFFFF;" width="139.417" height="84.246"/>
		</g>
		<g>
			<rect x="78.799" y="303.653" style="fill:#EBEBEB;" width="139.417" height="16.431"/>
		</g>
		<g>
			<path style="fill:#263238;" d="M122.227,353.724H99.626v-22.602h22.602V353.724z M100.626,352.724h20.602v-20.602h-20.602
				V352.724z"/>
		</g>
		<g>
			<path style="fill:#263238;" d="M122.227,390.486H99.626v-22.602h22.602V390.486z M100.626,389.486h20.602v-20.602h-20.602
				V389.486z"/>
		</g>
		<g>
			<path style="fill:#E0E0E0;" d="M194.882,350.068h-52.014c-3.609,0-6.535-2.926-6.535-6.535l0,0c0-3.609,2.926-6.535,6.535-6.535
				h52.014c3.609,0,6.535,2.926,6.535,6.535l0,0C201.417,347.142,198.491,350.068,194.882,350.068z"/>
		</g>
		<g>
			<circle style="fill:#FF725E;" cx="142.558" cy="342.423" r="11.027"/>
		</g>
		<g>
			<path style="fill:#E0E0E0;" d="M194.882,385.19h-52.014c-3.609,0-6.535-2.926-6.535-6.535l0,0c0-3.609,2.926-6.535,6.535-6.535
				h52.014c3.609,0,6.535,2.926,6.535,6.535l0,0C201.417,382.264,198.491,385.19,194.882,385.19z"/>
		</g>
		<g>
			<circle style="fill:#FF725E;" cx="169.66" cy="377.546" r="11.027"/>
		</g>
		<g>
			<g>
				<path style="fill:#263238;" d="M110.527,389.927c-0.144,0-0.261-4.797-0.261-10.714c0-5.918,0.117-10.715,0.261-10.715
					c0.144,0,0.26,4.796,0.26,10.715C110.787,385.129,110.671,389.927,110.527,389.927z"/>
			</g>
		</g>
		<g>
			<g>
				<path style="fill:#263238;" d="M121.727,379.459c0,0.144-4.851,0.26-10.833,0.26c-5.985,0-10.835-0.117-10.835-0.26
					s4.85-0.26,10.835-0.26C116.876,379.198,121.727,379.315,121.727,379.459z"/>
			</g>
		</g>
		<g>
			<g>
				<path style="fill:#263238;" d="M218.216,402.013c0,0-0.015-0.618-0.023-1.797c-0.005-1.187-0.013-2.931-0.024-5.208
					c-0.012-4.567-0.031-11.262-0.054-19.825c-0.026-17.112-0.064-41.675-0.11-71.53l0.21,0.211
					c-38.829,0.014-87.149,0.031-139.406,0.05h-0.011l0.26-0.26c-0.008,35.192-0.016,68.595-0.023,98.36l-0.237-0.237
					c41.152,0.048,75.975,0.089,100.523,0.117c12.283,0.027,21.993,0.049,28.644,0.063c3.321,0.013,5.875,0.022,7.611,0.029
					c0.859,0.006,1.513,0.011,1.964,0.014C217.984,402.004,218.216,402.013,218.216,402.013s-0.214,0.009-0.647,0.014
					c-0.445,0.003-1.09,0.008-1.938,0.014c-1.725,0.007-4.264,0.016-7.564,0.029c-6.638,0.015-16.33,0.036-28.591,0.064
					c-24.585,0.029-59.462,0.069-100.677,0.117l-0.237,0v-0.237c-0.007-29.765-0.015-63.168-0.023-98.36l0-0.26h0.261h0.011
					c52.256,0.019,100.577,0.036,139.406,0.05l0.211,0l0,0.211c-0.046,29.91-0.084,54.519-0.11,71.662
					c-0.023,8.542-0.041,15.222-0.054,19.777c-0.01,2.26-0.018,3.991-0.024,5.168C218.231,401.425,218.216,402.013,218.216,402.013z
					"/>
			</g>
		</g>
		<g>
			<path style="fill:#FFFFFF;" d="M88.787,312.03c0,1.314-1.065,2.379-2.379,2.379c-1.314,0-2.379-1.065-2.379-2.379
				s1.065-2.379,2.379-2.379C87.722,309.651,88.787,310.716,88.787,312.03z"/>
		</g>
		<g>
			<circle style="fill:#FFFFFF;" cx="93.599" cy="312.03" r="2.379"/>
		</g>
		<g>
			<circle style="fill:#FFFFFF;" cx="100.791" cy="312.03" r="2.379"/>
		</g>
	</g>
</g>
<g id="Grid">
	<g>
		<g>
			<rect x="77.81" y="95.02" style="fill:#FFFFFF;" width="188.792" height="186.401"/>
		</g>
		<g>
			<rect x="77.81" y="280.792" style="fill:#EBEBEB;" width="188.792" height="0.818"/>
		</g>
		<g>
			<rect x="77.81" y="94.202" style="fill:#EBEBEB;" width="188.792" height="0.818"/>
		</g>
		<g>
			<rect x="77.81" y="233.824" style="fill:#EBEBEB;" width="188.792" height="0.818"/>
		</g>
		<g>
			<rect x="77.81" y="186.855" style="fill:#EBEBEB;" width="188.792" height="0.818"/>
		</g>
		<g>
			<rect x="77.81" y="139.886" style="fill:#EBEBEB;" width="188.792" height="0.818"/>
		</g>
		<g>
			<rect x="265.796" y="95.02" style="fill:#EBEBEB;" width="0.806" height="186.59"/>
		</g>
		<g>
			<rect x="218.798" y="95.02" style="fill:#EBEBEB;" width="0.806" height="186.59"/>
		</g>
		<g>
			<rect x="171.803" y="95.02" style="fill:#EBEBEB;" width="0.806" height="186.59"/>
		</g>
		<g>
			<rect x="124.808" y="95.02" style="fill:#EBEBEB;" width="0.806" height="186.59"/>
		</g>
		<g>
			<rect x="77.81" y="95.02" style="fill:#EBEBEB;" width="0.806" height="186.59"/>
		</g>
		<g>
			<rect x="77.81" y="269.254" style="fill:#EBEBEB;" width="188.792" height="0.41"/>
		</g>
		<g>
			<rect x="77.81" y="257.513" style="fill:#EBEBEB;" width="188.792" height="0.41"/>
		</g>
		<g>
			<rect x="77.81" y="245.77" style="fill:#EBEBEB;" width="188.792" height="0.41"/>
		</g>
		<g>
			<rect x="77.81" y="234.028" style="fill:#E0E0E0;" width="188.792" height="0.41"/>
		</g>
		<g>
			<rect x="77.81" y="222.286" style="fill:#EBEBEB;" width="188.792" height="0.41"/>
		</g>
		<g>
			<rect x="77.81" y="210.544" style="fill:#EBEBEB;" width="188.792" height="0.41"/>
		</g>
		<g>
			<rect x="77.81" y="198.801" style="fill:#EBEBEB;" width="188.792" height="0.41"/>
		</g>
		<g>
			<rect x="77.81" y="187.059" style="fill:#E0E0E0;" width="188.792" height="0.41"/>
		</g>
		<g>
			<rect x="77.81" y="175.316" style="fill:#EBEBEB;" width="188.792" height="0.41"/>
		</g>
		<g>
			<rect x="77.81" y="163.574" style="fill:#EBEBEB;" width="188.792" height="0.41"/>
		</g>
		<g>
			<rect x="77.81" y="151.832" style="fill:#EBEBEB;" width="188.792" height="0.41"/>
		</g>
		<g>
			<rect x="77.81" y="140.09" style="fill:#E0E0E0;" width="188.792" height="0.41"/>
		</g>
		<g>
			<rect x="77.81" y="128.347" style="fill:#EBEBEB;" width="188.792" height="0.41"/>
		</g>
		<g>
			<rect x="77.81" y="116.606" style="fill:#EBEBEB;" width="188.792" height="0.41"/>
		</g>
		<g>
			<rect x="77.81" y="104.864" style="fill:#EBEBEB;" width="188.792" height="0.41"/>
		</g>
		<g>
			<rect x="265.998" y="95.02" style="fill:#EBEBEB;" width="0.403" height="186.59"/>
		</g>
		<g>
			<rect x="254.246" y="95.02" style="fill:#EBEBEB;" width="0.403" height="186.59"/>
		</g>
		<g>
			<rect x="242.498" y="95.02" style="fill:#EBEBEB;" width="0.403" height="186.59"/>
		</g>
		<g>
			<rect x="230.749" y="95.02" style="fill:#EBEBEB;" width="0.403" height="186.59"/>
		</g>
		<g>
			<rect x="219" y="95.02" style="fill:#E0E0E0;" width="0.403" height="186.59"/>
		</g>
		<g>
			<rect x="207.251" y="95.02" style="fill:#EBEBEB;" width="0.403" height="186.59"/>
		</g>
		<g>
			<rect x="195.502" y="95.02" style="fill:#EBEBEB;" width="0.403" height="186.59"/>
		</g>
		<g>
			<rect x="183.753" y="95.02" style="fill:#EBEBEB;" width="0.403" height="186.59"/>
		</g>
		<g>
			<rect x="172.005" y="95.02" style="fill:#E0E0E0;" width="0.403" height="186.59"/>
		</g>
		<g>
			<rect x="160.256" y="95.02" style="fill:#EBEBEB;" width="0.403" height="186.59"/>
		</g>
		<g>
			<rect x="148.507" y="95.02" style="fill:#EBEBEB;" width="0.403" height="186.59"/>
		</g>
		<g>
			<rect x="136.758" y="95.02" style="fill:#EBEBEB;" width="0.403" height="186.59"/>
		</g>
		<g>
			<rect x="125.009" y="95.02" style="fill:#E0E0E0;" width="0.403" height="186.59"/>
		</g>
		<g>
			<rect x="113.261" y="95.02" style="fill:#EBEBEB;" width="0.403" height="186.59"/>
		</g>
		<g>
			<rect x="101.509" y="95.02" style="fill:#EBEBEB;" width="0.403" height="186.59"/>
		</g>
		<g>
			<rect x="89.76" y="95.02" style="fill:#EBEBEB;" width="0.403" height="186.59"/>
		</g>
		<g>
			<rect x="78.011" y="95.02" style="fill:#E0E0E0;" width="0.403" height="186.59"/>
		</g>
		<g>
			<rect x="73.954" y="90.358" style="fill:#263238;" width="9.325" height="9.325"/>
		</g>
		<g>
			<rect x="73.954" y="276.759" style="fill:#263238;" width="9.325" height="9.325"/>
		</g>
		<g>
			<rect x="261.442" y="90.358" style="fill:#263238;" width="9.325" height="9.325"/>
		</g>
		<g>
			<rect x="261.442" y="276.948" style="fill:#263238;" width="9.325" height="9.325"/>
		</g>
		<g>
			<g>
				<path style="fill:#263238;" d="M267.063,281.61c-0.002-1.917-0.09-75.036-0.225-187.408l0.225,0.225
					c-54.957,0.01-119.91,0.022-189.235,0.035H77.81l0.26-0.26c-0.013,68.59-0.025,132.891-0.035,187.408l-0.225-0.225
					C191.228,281.52,265.136,281.608,267.063,281.61c0,0-0.288,0.009-0.866,0.013c-0.586,0.003-1.45,0.007-2.586,0.013
					c-2.295,0.006-5.688,0.015-10.112,0.026c-8.876,0.014-21.882,0.034-38.43,0.059c-33.15,0.028-80.486,0.067-137.258,0.115
					l-0.226,0v-0.226c-0.01-54.516-0.022-118.818-0.035-187.408l0-0.26h0.261h0.018c69.324,0.013,134.278,0.025,189.235,0.036
					l0.225,0l0,0.225c-0.048,56.249-0.087,103.123-0.115,135.943c-0.025,16.383-0.045,29.256-0.059,38.042
					c-0.012,4.378-0.02,7.736-0.026,10.007c-0.006,1.125-0.01,1.979-0.013,2.559C267.071,281.326,267.063,281.61,267.063,281.61z"/>
			</g>
		</g>
	</g>
</g>
<g id="Character_1_">
	<g>
		<g>
			<g>
				<g>
					<path style="fill:#FFBE9D;" d="M267.803,279.262c0.696,0.392,9.256,21.784,9.752,24.263c0.496,2.479,1.983,12.232,1.157,20.662
						c-0.826,8.43-2.146,20.539-2.146,20.539l-31.503,0.767l1.237-20.367c0,0-5.478-6.122-5.231-10.5
						c0.306-5.429,5.08-5.317,5.08-5.317s-2.314-6.942,4.628-7.603c0,0,3.436-7.108,8.743-5.785c5.307,1.322,7.29,3.306,7.29,3.306
						l-5.235-14.15c-0.785-2.122-0.072-4.561,1.822-5.798C264.529,278.541,266.003,278.247,267.803,279.262z"/>
				</g>
				<g>
					<g>
						<path style="fill:#EB996E;" d="M260.835,315.649c-0.077,0.055-0.648-0.776-1.811-1.875c-0.572-0.559-1.329-1.141-2.201-1.729
							c-0.891-0.562-1.918-1.105-3.052-1.545c-2.28-0.867-4.506-1.108-6.102-1.081c-1.601,0.026-2.585,0.236-2.604,0.144
							c-0.008-0.035,0.231-0.113,0.675-0.226c0.441-0.123,1.098-0.224,1.915-0.286c1.631-0.124,3.946,0.065,6.303,0.962
							c1.172,0.454,2.228,1.029,3.132,1.632c0.887,0.63,1.642,1.259,2.195,1.867c0.563,0.596,0.975,1.119,1.214,1.51
							C260.744,315.408,260.865,315.629,260.835,315.649z"/>
					</g>
				</g>
				<g>
					<g>
						<path style="fill:#EB996E;" d="M264.807,308.734c-0.077,0.05-0.592-0.741-1.629-1.827c-1.031-1.087-2.65-2.416-4.71-3.409
							c-2.065-0.984-4.116-1.413-5.609-1.536c-1.496-0.128-2.435-0.034-2.444-0.126c-0.009-0.051,0.924-0.277,2.466-0.242
							c1.536,0.03,3.677,0.416,5.812,1.434c2.13,1.026,3.773,2.453,4.758,3.632C264.445,307.84,264.853,308.71,264.807,308.734z"/>
					</g>
				</g>
				<g>
					<g>
						<path style="fill:#EB996E;" d="M270.546,304.198c-0.133,0.071-0.863-1.101-1.934-2.403c-1.064-1.309-2.067-2.256-1.972-2.373
							c0.082-0.109,1.271,0.686,2.375,2.043C270.126,302.815,270.67,304.139,270.546,304.198z"/>
					</g>
				</g>
				<g>
					<g>
						<path style="fill:#EB996E;" d="M246.146,327.439c-0.14-0.032,0.242-2.221,0.854-4.888c0.612-2.668,1.221-4.804,1.361-4.772
							c0.14,0.032-0.242,2.22-0.854,4.888C246.896,325.334,246.286,327.471,246.146,327.439z"/>
					</g>
				</g>
			</g>
			<g>
				<g>
					<g>
						<g>
							<path style="fill:#FFBE9D;" d="M286.305,372.577l-5.255,6.989l-4.098-45.147l-31.887,9.173c0,0-2.989,71.231-1.906,82.934
								c1.184,12.785,1.442,13.42,4.686,19.25c4.15,7.459,18.591,12.667,26.843,10.482c8.411-2.227,17.1-13.429,23.7-20.142
								c11.997-12.202,30.856-35.829,30.856-35.829L286.305,372.577z"/>
						</g>
					</g>
				</g>
				<g>
					<g>
						<g>
							<path style="fill:#EB996E;" d="M285.483,373.668c0.132,0.104-1.194,1.988-3.308,5.041c-2.116,3.052-4.989,7.298-7.969,12.109
								c-2.977,4.816-5.494,9.282-7.281,12.538c-1.788,3.254-2.882,5.281-3.034,5.21c-0.136-0.064,0.699-2.217,2.31-5.582
								c1.609-3.365,4.03-7.924,7.026-12.771c2.999-4.842,5.998-9.043,8.291-11.985
								C283.811,375.284,285.366,373.576,285.483,373.668z"/>
						</g>
					</g>
				</g>
			</g>
		</g>
		<g>
			<g>
				<path style="fill:none;stroke:#4E585D;stroke-width:0.05;stroke-miterlimit:10;" d="M427.977,285.379"/>
			</g>
		</g>
		<g>
			<g>
				<path style="fill:#FFBE9D;" d="M418.864,180.435c-3.122-3.151-109.513-86.757-109.513-86.757l-19.499,25.999l96.478,86.036
					C386.33,205.714,421.987,183.586,418.864,180.435z"/>
			</g>
			<g>
				<path style="fill:#FFBE9D;" d="M309.352,93.679L295.63,69.124L278.057,54.44c0,0-3.37,2.407-1.204,6.018
					c2.167,3.611,5.777,6.5,5.777,6.5s-8.185,0.481-8.185,3.611c0,0-9.629,2.648-8.426,8.907c0,0-4.092,7.944-2.407,10.111
					c1.685,2.167,4.815,2.167,6.74,0c1.926-2.167,5.296-3.129,9.148-2.889c3.852,0.241,8.666,6.74,8.185,12.759
					c-0.482,6.018-3.852,8.666-8.426,7.703c-4.574-0.963-8.604-7.14-11.974-6.659c-3.37,0.481-2.848,3.868-0.996,5.794
					c1.851,1.926,11.045,12.42,12.971,13.383c1.926,0.963,8.907-0.241,10.592,0C291.537,119.918,309.352,93.679,309.352,93.679z"/>
			</g>
			<g>
				<g>
					<path style="fill:#EB996E;" d="M286.772,80.356c-0.085,0.056-0.434-1.271-2.059-2.492c-0.796-0.604-1.891-1.121-3.191-1.404
						c-1.295-0.294-2.778-0.367-4.324-0.319c-3.102,0.102-5.848,0.848-7.746,1.57c-1.905,0.726-3.006,1.366-3.049,1.29
						c-0.018-0.03,0.24-0.219,0.731-0.523c0.495-0.296,1.23-0.698,2.181-1.108c1.892-0.822,4.69-1.644,7.866-1.749
						c1.58-0.049,3.102,0.039,4.452,0.372c1.35,0.32,2.499,0.906,3.308,1.582c0.818,0.67,1.304,1.395,1.558,1.919
						C286.75,80.025,286.8,80.348,286.772,80.356z"/>
				</g>
			</g>
			<g>
				<g>
					<path style="fill:#EB996E;" d="M287.991,72.875c-0.078,0.151-2.664-1.558-6.338-2.184c-3.667-0.673-6.682,0.045-6.704-0.124
						c-0.015-0.059,0.713-0.318,1.945-0.494c1.229-0.178,2.97-0.224,4.849,0.105c1.877,0.335,3.497,0.976,4.59,1.565
						C287.431,72.331,288.025,72.825,287.991,72.875z"/>
				</g>
			</g>
			<g>
				<g>
					<path style="fill:#EB996E;" d="M292.951,72.486c-0.126,0.113-1.625-2.327-4.657-3.833c-3.006-1.56-5.86-1.33-5.843-1.498
						c-0.006-0.057,0.686-0.204,1.821-0.142c1.131,0.058,2.7,0.389,4.257,1.176c1.554,0.793,2.747,1.864,3.461,2.743
						C292.71,71.812,293.001,72.457,292.951,72.486z"/>
				</g>
			</g>
		</g>
		<g>
			<g>
				<g>
					<g>
						<g>
							<path style="fill:#FF725E;" d="M337.719,361.743c0,0-13.193,15.217-16.409,37.729c-3.958,27.706,15.97,37.369,15.97,37.369
								l-0.491,29.942h120.03c-0.174,0.196,0.666-50.86-0.409-90.663c-1.075-39.803-18.583-80.753-18.583-80.753
								s-15.93-9.203-27.884-8.2c-11.954,1.003-63.999,8.129-63.999,8.129L337.719,361.743z"/>
						</g>
					</g>
					<g>
						<g>
							<path style="fill:#FF725E;" d="M345.943,295.296c0,0-19.993,2.892-38.548,32.015c-19.163,30.077-26.382,41.617-26.382,41.617
								l53.041,36.578c0,0,30.097-45.371,33.859-55.105C371.676,340.667,375.879,294.385,345.943,295.296z"/>
						</g>
					</g>
					<g style="opacity:0.2;">
						<g>
							<path d="M320.79,410.656l15.365,4.062c0,0,29.85-39.571,31.034-61.885l-32.791,50.806l-5.154-3.351L320.79,410.656z"/>
						</g>
					</g>
				</g>
			</g>
			<g>
				<path style="fill:#FF725E;" d="M444.379,254.512c0,0,12.439,38.847,10.735,63.001c-1.085,15.367-1.831,26.142-1.831,26.142
					l-38.431-57.21L444.379,254.512z"/>
			</g>
			<g>
				<g>
					<path style="fill:#263238;" d="M281.013,368.927c0.004-0.006,0.094,0.045,0.269,0.15c0.191,0.118,0.444,0.274,0.77,0.476
						c0.693,0.44,1.685,1.069,2.964,1.88c2.599,1.67,6.358,4.085,11.084,7.123c9.481,6.137,22.839,14.784,38.432,24.878l-0.34,0.073
						c5.366-8.322,11.237-17.429,17.356-26.919c3.585-5.552,7.086-10.972,10.466-16.207c1.691-2.617,3.352-5.187,4.979-7.705
						c1.581-2.512,2.694-5.235,3.604-7.931c0.905-2.704,1.552-5.417,2.065-8.07c0.516-2.654,0.856-5.262,1.028-7.793
						c0.371-5.05,0.119-9.851-1.243-13.941c-1.378-4.081-3.489-7.447-5.75-10.008c-2.27-2.565-4.643-4.38-6.729-5.586
						c-2.091-1.214-3.877-1.821-5.078-2.233c-0.597-0.162-1.061-0.288-1.397-0.379c-0.315-0.087-0.474-0.145-0.474-0.145
						s0.166,0.023,0.486,0.093c0.319,0.073,0.796,0.173,1.415,0.33c1.216,0.381,3.026,0.961,5.149,2.158
						c2.118,1.189,4.532,2.996,6.846,5.569c2.304,2.568,4.463,5.957,5.881,10.084c1.406,4.148,1.679,9.006,1.324,14.087
						c-0.163,2.55-0.497,5.175-1.008,7.848c-0.509,2.672-1.153,5.405-2.059,8.135c-0.913,2.724-2.029,5.477-3.641,8.049
						c-1.623,2.52-3.281,5.093-4.968,7.712c-3.378,5.237-6.875,10.659-10.457,16.212c-6.128,9.485-12.008,18.586-17.382,26.903
						l-0.134,0.207l-0.206-0.135c-15.552-10.158-28.875-18.859-38.33-25.035c-4.694-3.088-8.427-5.544-11.007-7.241
						c-1.26-0.84-2.238-1.492-2.921-1.947c-0.316-0.216-0.562-0.384-0.747-0.51C281.092,368.996,281.009,368.933,281.013,368.927z"
						/>
				</g>
			</g>
			<g>
				<g>
					<path style="fill:#263238;" d="M451.773,331.804c0.009-0.001,0.031,0.099,0.066,0.296c0.036,0.226,0.083,0.515,0.141,0.877
						c0.118,0.808,0.283,1.939,0.493,3.378c0.427,2.934,0.965,7.19,1.556,12.457c0.602,5.267,1.194,11.552,1.75,18.539
						c0.528,6.989,0.997,14.682,1.325,22.763c0.639,16.171,0.608,30.823,0.419,41.421c-0.097,5.299-0.214,9.587-0.33,12.548
						c-0.06,1.452-0.107,2.594-0.141,3.41c-0.02,0.366-0.037,0.658-0.05,0.886c-0.014,0.2-0.026,0.302-0.035,0.301
						c-0.009,0-0.015-0.103-0.018-0.303c-0.001-0.229-0.001-0.522-0.002-0.888c0.01-0.816,0.025-1.959,0.043-3.412
						c0.039-3,0.096-7.277,0.165-12.548c0.094-10.595,0.067-25.237-0.571-41.395c-0.328-8.075-0.782-15.762-1.283-22.748
						c-0.53-6.983-1.082-13.267-1.638-18.535c-0.544-5.269-1.026-9.53-1.391-12.471c-0.168-1.444-0.301-2.579-0.396-3.39
						c-0.037-0.365-0.067-0.656-0.09-0.883C451.769,331.908,451.764,331.806,451.773,331.804z"/>
				</g>
			</g>
			<g>
				<g>
					<path style="fill:#263238;" d="M448.236,326.695c-0.017,0.006-0.091-0.14-0.216-0.423c-0.143-0.341-0.315-0.752-0.522-1.245
						c-0.214-0.545-0.485-1.208-0.844-1.959c-0.352-0.753-0.714-1.628-1.213-2.548c-0.472-0.934-0.993-1.953-1.626-3.007
						c-0.589-1.079-1.318-2.172-2.061-3.336c-1.549-2.286-3.387-4.71-5.52-7.08c-2.155-2.351-4.391-4.414-6.518-6.176
						c-1.088-0.851-2.106-1.682-3.124-2.372c-0.989-0.731-1.953-1.348-2.837-1.907c-0.868-0.585-1.705-1.029-2.42-1.452
						c-0.713-0.43-1.346-0.763-1.868-1.028c-0.472-0.253-0.864-0.464-1.19-0.639c-0.27-0.151-0.408-0.239-0.4-0.255
						c0.008-0.016,0.16,0.039,0.445,0.16c0.338,0.151,0.746,0.333,1.236,0.553c0.538,0.239,1.188,0.547,1.918,0.954
						c0.733,0.401,1.587,0.826,2.473,1.394c0.902,0.543,1.885,1.146,2.892,1.868c1.036,0.68,2.072,1.504,3.177,2.352
						c2.162,1.756,4.428,3.827,6.602,6.199c2.152,2.391,3.995,4.845,5.535,7.165c0.738,1.181,1.459,2.291,2.036,3.388
						c0.621,1.072,1.128,2.108,1.581,3.058c0.48,0.937,0.821,1.828,1.15,2.596c0.335,0.766,0.58,1.442,0.766,2.001
						c0.171,0.509,0.313,0.932,0.431,1.283C448.213,326.532,448.253,326.689,448.236,326.695z"/>
				</g>
			</g>
			<g>
				<g>
					<path style="fill:#FFFFFF;" d="M351.935,375.02c-0.032,0.01-0.086-0.265-0.328-0.72c-0.235-0.453-0.693-1.085-1.504-1.63
						c-0.81-0.54-1.938-1-3.307-1.249c-1.365-0.276-2.971-0.228-4.748-0.426c-0.887-0.095-1.822-0.26-2.757-0.595
						c-0.929-0.343-1.848-0.911-2.538-1.758c-0.692-0.843-1.11-1.923-1.278-3.049c-0.164-1.131-0.111-2.306,0.076-3.48
						c0.378-2.359,1.372-4.645,1.688-7.135c0.163-1.235,0.121-2.523-0.29-3.727c-0.401-1.207-1.144-2.307-2.086-3.225
						c-1.905-1.849-4.404-2.873-6.872-3.302c-2.481-0.454-4.943-0.456-7.283-0.511c-2.341-0.041-4.593-0.159-6.656-0.589
						c-2.062-0.413-3.929-1.164-5.398-2.211c-1.494-1.032-2.468-2.42-3.056-3.714c-0.579-1.311-0.771-2.56-0.707-3.563
						c0.055-1.007,0.319-1.757,0.548-2.229c0.108-0.239,0.23-0.402,0.297-0.519c0.072-0.113,0.112-0.169,0.12-0.164
						c0.09,0.025-0.697,0.943-0.761,2.919c-0.031,0.974,0.184,2.178,0.769,3.435c0.595,1.242,1.553,2.561,3.002,3.533
						c1.433,0.993,3.249,1.703,5.273,2.09c2.025,0.403,4.241,0.505,6.579,0.532c2.336,0.043,4.82,0.031,7.365,0.489
						c2.53,0.433,5.145,1.489,7.143,3.431c0.991,0.966,1.785,2.137,2.214,3.435c0.441,1.296,0.478,2.672,0.305,3.955
						c-0.339,2.582-1.349,4.875-1.721,7.148c-0.387,2.245-0.219,4.601,1.065,6.18c1.274,1.602,3.299,2.046,5.003,2.259
						c1.74,0.218,3.363,0.195,4.762,0.506c1.395,0.283,2.547,0.783,3.367,1.368c0.823,0.591,1.272,1.271,1.482,1.75
						C351.919,374.737,351.935,375.02,351.935,375.02z"/>
				</g>
			</g>
			<g>
				<g>
					<path style="fill:#FFFFFF;" d="M453.695,368.127c0.009,0.002-0.007,0.103-0.045,0.299c-0.04,0.195-0.097,0.488-0.189,0.867
						c-0.212,0.749-0.543,1.858-1.202,3.192c-0.657,1.33-1.647,2.878-3.09,4.426c-1.448,1.533-3.379,3.054-5.825,4.135
						c-2.435,1.091-5.399,1.642-8.532,1.401c-3.125-0.234-6.44-1.312-9.309-3.4c-2.88-2.082-5.075-5.126-8.073-7.382
						c-0.753-0.554-1.557-1.046-2.417-1.434c-0.436-0.179-0.875-0.354-1.339-0.463l-0.687-0.192l-0.709-0.105
						c-1.896-0.272-3.879-0.015-5.766,0.601c-3.799,1.234-7.13,3.39-10.464,5.21c-3.314,1.885-6.807,3.245-10.265,3.902
						c-6.907,1.422-13.662-0.209-17.768-3.656c-4.186-3.377-5.969-7.648-6.369-10.555c-0.136-0.731-0.139-1.397-0.169-1.965
						c0.029-0.571,0.016-1.056,0.074-1.442c0.056-0.362,0.101-0.651,0.136-0.877c0.033-0.197,0.055-0.296,0.064-0.295
						c0.113,0-0.409,1.638,0.095,4.546c0.455,2.856,2.264,7.025,6.398,10.299c4.048,3.335,10.655,4.895,17.447,3.474
						c3.405-0.662,6.824-2.001,10.111-3.878c3.316-1.815,6.658-3.992,10.554-5.26c1.935-0.632,4.003-0.905,5.995-0.617l0.744,0.112
						l0.722,0.201c0.486,0.116,0.948,0.3,1.405,0.489c0.902,0.407,1.738,0.922,2.513,1.495c3.08,2.336,5.255,5.375,8.053,7.405
						c2.779,2.04,6.008,3.11,9.06,3.357c3.059,0.254,5.96-0.263,8.35-1.308c2.403-1.036,4.316-2.508,5.761-3.998
						c1.44-1.505,2.443-3.015,3.12-4.316c0.68-1.304,1.038-2.393,1.282-3.128c0.098-0.35,0.177-0.63,0.238-0.85
						C453.653,368.223,453.686,368.126,453.695,368.127z"/>
				</g>
			</g>
			<g>
				<g>
					<path style="fill:#FFFFFF;" d="M451.981,294.995c-0.128,0.015,0.054-1.594-0.903-3.884c-0.469-1.133-1.222-2.411-2.331-3.594
						c-1.101-1.182-2.558-2.28-4.302-2.946c-3.509-1.596-7.058,0.133-9.597-0.781c-1.238-0.399-2.051-1.172-2.385-1.812
						c-0.179-0.316-0.242-0.594-0.276-0.778c-0.02-0.188-0.021-0.286-0.004-0.288c0.054-0.013,0.075,0.395,0.453,0.961
						c0.362,0.564,1.149,1.235,2.319,1.565c1.162,0.349,2.643,0.19,4.283,0.007c0.413-0.042,0.84-0.079,1.281-0.094
						c0.441-0.004,0.896,0.021,1.356,0.047c0.911,0.126,1.858,0.305,2.759,0.688c1.828,0.699,3.34,1.858,4.465,3.105
						c1.134,1.248,1.882,2.596,2.321,3.785c0.466,1.188,0.563,2.226,0.624,2.925C452.038,294.61,452.017,294.996,451.981,294.995z"
						/>
				</g>
			</g>
			<g>
				<g>
					<path style="fill:#FFFFFF;" d="M455.778,440.99c0.008,0.004-0.049,0.106-0.168,0.3c-0.136,0.215-0.314,0.498-0.539,0.854
						c-0.445,0.772-1.263,1.802-2.38,3.07c-2.292,2.439-6.273,5.616-12.126,7.328c-2.908,0.836-6.246,1.307-9.81,1.054
						c-3.563-0.215-7.325-1.324-10.791-3.36c-3.463-2.038-6.628-4.814-10.181-7.25c-1.778-1.21-3.673-2.331-5.747-3.085
						c-2.064-0.77-4.329-1.082-6.569-0.801c-2.244,0.266-4.373,1.067-6.333,2.093c-1.964,1.033-3.778,2.278-5.548,3.519
						c-3.517,2.495-6.931,5.033-10.702,6.481c-3.735,1.483-7.562,2.091-11.118,2.109c-3.564,0.014-6.871-0.533-9.77-1.401
						c-2.889-0.909-5.383-2.072-7.444-3.308c-1.016-0.638-1.936-1.278-2.762-1.887c-0.783-0.667-1.532-1.238-2.142-1.821
						c-0.59-0.598-1.116-1.132-1.576-1.598c-0.44-0.477-0.76-0.928-1.043-1.269c-0.26-0.332-0.465-0.594-0.622-0.795
						c-0.138-0.181-0.205-0.276-0.197-0.281c0.007-0.005,0.088,0.079,0.24,0.249c0.167,0.192,0.385,0.443,0.661,0.76
						c0.295,0.329,0.626,0.767,1.076,1.231c0.467,0.454,1.001,0.973,1.6,1.555c0.616,0.568,1.37,1.122,2.155,1.773
						c0.829,0.592,1.749,1.214,2.762,1.835c2.056,1.2,4.535,2.328,7.399,3.204c2.874,0.836,6.145,1.354,9.661,1.322
						c3.51-0.036,7.277-0.653,10.943-2.123c3.694-1.43,7.061-3.942,10.587-6.453c1.773-1.248,3.601-2.507,5.601-3.561
						c1.995-1.046,4.185-1.875,6.513-2.151c2.323-0.292,4.681,0.036,6.805,0.831c2.136,0.779,4.063,1.926,5.859,3.151
						c3.585,2.468,6.733,5.241,10.138,7.258c3.396,2.009,7.073,3.112,10.58,3.343c3.505,0.267,6.799-0.175,9.676-0.978
						c5.791-1.645,9.763-4.737,12.081-7.113c1.129-1.236,1.969-2.239,2.44-2.989c0.242-0.344,0.434-0.616,0.581-0.823
						C455.698,441.077,455.77,440.985,455.778,440.99z"/>
				</g>
			</g>
		</g>
		<g>
			<g>
				<g>
					<g>
						<g>
							<g>
								<path style="fill:#263238;" d="M443.162,236.734c-2.507-12.748-7.759-24.763-11.765-37.123
									c-4.665-14.388-8.288-30.337-19.896-40.035c-7.662-6.402-17.72-9.047-27.506-11.033c-8.863-1.799-18.049-3.205-26.904-1.365
									c-4.425,0.92-8.648,2.63-13.04,3.693c-5.096,1.234-10.46,1.614-15.223,3.804c-9.84,4.525-14.865,15.762-16.339,26.492
									c-1.474,10.73-0.26,21.698-1.795,32.42c-0.737,5.143-2.094,10.175-3.362,15.22c-4.537,9.798-9.508,19.589-8.798,30.073
									c0.513,7.586,3.999,14.625,5.673,22.042c1.674,7.416,0.995,16.326-5,21.003c3.726,3.399,9.887,3.726,13.952,0.739
									c2.524-1.855,4.066-4.864,4.364-7.973c0.775,1.061,1.826,1.952,3.005,2.489c3.016,1.374,6.492,1.088,9.79,0.773
									c9.53-0.913,19.428-2.028,27.728-6.634l46.673-3.985c12.044,4.873,26.576-1.886,33.5-12.88
									C445.142,263.461,445.67,249.481,443.162,236.734z"/>
							</g>
						</g>
					</g>
					<g>
						<g>
							<g>
								<path style="fill:#263238;" d="M348.512,157.133c-4.519,0.903-9.284,0.234-13.72,1.484
									c-6.424,1.811-11.195,7.467-13.65,13.674c-2.455,6.207-2.948,12.988-3.416,19.646c-0.419,5.968-0.838,11.936-1.256,17.904
									c-0.269,3.836-0.544,7.704-1.597,11.402c-1.174,4.126-4.38,15.1-4.59,20.463c-0.682,17.458,5.557,31.634,13.34,40.451
									c4.116,4.663,23.29,4.779,29.387,6.012c2.687-2.349,9.402-2.328,12.089-4.676c0.458-0.401-19.504-15.666-19.268-16.227
									c0.385-0.914,0.055-1.954-0.267-2.892c-11.797-34.415-9.588-73.407,6.02-106.269"/>
							</g>
						</g>
					</g>
					<g>
						<g>
							<g>
								<path style="fill:#FFBE9D;" d="M402.528,293.759l6.98-109.693l0,0c0.105-4.768-3.457-8.823-8.198-9.335l-48.719-12.428
									c-15.607-1.686-26.03,17.513-27.052,33.178c-1.135,17.403-1.835,38.697,0.199,51.688
									c4.089,26.124,24.098,29.492,24.098,29.492c0.008-0.133,1.737,18.477,1.737,18.477s12.538-1.732,21.901-2.737
									C394.241,290.172,402.528,293.759,402.528,293.759z"/>
							</g>
						</g>
					</g>
					<g>
						<g>
							<g>
								<path style="fill:#263238;" d="M332.558,217.16c-0.066,1.768,1.377,3.283,3.223,3.386c1.842,0.103,3.393-1.243,3.459-3.012
									c0.066-1.768-1.377-3.285-3.218-3.388C334.176,214.042,332.624,215.391,332.558,217.16z"/>
							</g>
						</g>
					</g>
					<g>
						<g>
							<g>
								<path style="fill:#263238;" d="M331.632,207.32c0.414,0.438,2.956-1.435,6.56-1.417c3.601-0.035,6.241,1.826,6.634,1.385
									c0.192-0.195-0.229-0.984-1.379-1.825c-1.131-0.837-3.064-1.654-5.309-1.649c-2.245,0.007-4.135,0.83-5.223,1.673
									C331.805,206.335,331.428,207.124,331.632,207.32z"/>
							</g>
						</g>
					</g>
					<g>
						<g>
							<g>
								<path style="fill:#263238;" d="M363.689,217.159c-0.067,1.769,1.376,3.283,3.222,3.387c1.842,0.103,3.393-1.243,3.459-3.012
									c0.066-1.768-1.377-3.285-3.219-3.388C365.306,214.042,363.755,215.391,363.689,217.159z"/>
							</g>
						</g>
					</g>
					<g>
						<g>
							<g>
								<path style="fill:#263238;" d="M367.056,207.32c0.416,0.438,2.96-1.435,6.562-1.417c3.6-0.035,6.241,1.826,6.633,1.385
									c0.192-0.196-0.225-0.984-1.379-1.825c-1.132-0.838-3.063-1.654-5.309-1.65c-2.245,0.008-4.135,0.83-5.222,1.673
									C367.234,206.335,366.854,207.124,367.056,207.32z"/>
							</g>
						</g>
					</g>
					<g>
						<g>
							<g>
								<path style="fill:#263238;" d="M353.918,234.019c0.017-0.205-2.222-0.597-5.852-1.07c-0.92-0.097-1.79-0.281-1.944-0.91
									c-0.215-0.666,0.172-1.657,0.62-2.726c0.87-2.225,1.781-4.557,2.737-7.001c3.802-9.969,6.556-18.168,6.153-18.317
									c-0.402-0.149-3.812,7.81-7.612,17.779c-0.915,2.459-1.79,4.802-2.623,7.044c-0.351,1.045-0.952,2.23-0.486,3.611
									c0.247,0.689,0.921,1.189,1.511,1.349c0.589,0.181,1.107,0.192,1.563,0.22C351.638,234.202,353.904,234.224,353.918,234.019
									z"/>
							</g>
						</g>
					</g>
					<g>
						<g>
							<g>
								<path style="fill:#EB996E;" d="M349.837,276.662c0,0,19.063,1.172,36.493-9.252c0,0-9.59,19.867-35.722,17.366
									L349.837,276.662z"/>
							</g>
						</g>
					</g>
					<g>
						<g>
							<g>
								<path style="fill:#EB996E;" d="M366.072,241.631c-1.094-1.474-2.917-2.349-4.724-2.547
									c-2.603-0.286-5.228,0.795-6.729,2.771l-0.179,0.136c-0.346,0.409-0.288,1.055-0.009,1.549
									c0.28,0.495,0.737,0.872,1.186,1.233c1.621,1.306,3.327,2.618,5.313,3.187c1.985,0.57,4.333,0.21,5.46-1.368
									C367.391,245.193,367.166,243.105,366.072,241.631z"/>
							</g>
						</g>
					</g>
					<g>
						<g>
							<g>
								<path style="fill:#263238;" d="M364.519,236.535c-0.586-0.035-0.602,3.877-3.957,6.646c-3.348,2.778-7.518,2.33-7.549,2.877
									c-0.056,0.245,0.927,0.762,2.686,0.813c1.727,0.063,4.249-0.486,6.303-2.18c2.046-1.699,2.929-3.968,3.066-5.573
									C365.221,237.484,364.787,236.514,364.519,236.535z"/>
							</g>
						</g>
					</g>
					<g>
						<g>
							<g>
								<path style="fill:#263238;" d="M364.853,194.441c0.353,0.981,3.953,0.524,8.18,1.043c4.238,0.434,7.645,1.68,8.208,0.802
									c0.251-0.42-0.341-1.343-1.717-2.295c-1.364-0.95-3.543-1.855-6.081-2.143c-2.538-0.283-4.863,0.114-6.405,0.738
									C365.485,193.207,364.702,193.975,364.853,194.441z"/>
							</g>
						</g>
					</g>
					<g>
						<g>
							<g>
								<path style="fill:#263238;" d="M331.579,195.854c0.632,0.82,3.117-0.024,6.102-0.058c2.985-0.138,5.513,0.562,6.097-0.293
									c0.256-0.415-0.141-1.236-1.244-2.013c-1.086-0.775-2.906-1.41-4.958-1.353c-2.051,0.06-3.831,0.799-4.871,1.635
									C331.649,194.612,331.301,195.454,331.579,195.854z"/>
							</g>
						</g>
					</g>
				</g>
				<g>
					<g>
						<g>
							<path style="fill:#263238;" d="M345.259,160.555c0.234-1.529,1.451-2.702,2.671-3.654c7.859-6.135,18.501-7.995,28.356-6.481
								c9.855,1.514,19.007,6.125,27.202,11.803c7.136,4.944,13.867,10.982,17.484,18.873c2.554,5.572,3.411,11.747,4.24,17.82
								c2.055,15.051,6.094,30.136,5.947,45.326c-0.057,5.916,1.016,15.872,0.004,23.167c-1.081,7.79-8.64,17.295-16.31,19.034
								l-17.296,1.725c0,0,9.363-32.293,8.639-43.927c-0.634-10.198-0.543-21.382-1.694-31.535c-0.09-0.788-0.19-1.604-0.603-2.282
								c-0.526-0.864-1.473-1.366-2.374-1.826c-3.601-1.84-7.202-3.681-10.802-5.521c-3.458-1.768-6.925-3.54-10.167-5.679
								c-3.651-2.408-6.884-4.189-10.207-7.033c-4.671-3.997-8.954-7.187-13.625-11.184c-2.924-2.502-6.378-6.925-8.495-10.14
								c-2.117-3.214-3.31-7.243-2.322-10.963"/>
						</g>
					</g>
				</g>
				<g>
					<g>
						<g>
							<g>
								<g>
									<g>
										<g>
											<g>
												<g>
													<g>
														<g>
															<g>
																<g>
																	<g>
																		<g>
																			<g>
																				<g>
																					<g>
																						<path style="fill:#FFBE9D;" d="M403.275,219.831c0.277-5.556,6.329-9.265,11.146-6.481
																							c2.644,1.528,4.667,4.601,4.424,10.5c-0.648,15.732-16.308,11.836-16.316,11.384
																							C402.523,234.954,402.949,226.338,403.275,219.831z"/>
																					</g>
																				</g>
																			</g>
																		</g>
																	</g>
																</g>
															</g>
														</g>
													</g>
												</g>
											</g>
										</g>
									</g>
								</g>
							</g>
						</g>
					</g>
				</g>
				<g>
					<g>
						<g>
							<g>
								<g>
									<g>
										<g>
											<g>
												<g>
													<g>
														<g>
															<g>
																<g>
																	<g>
																		<g>
																			<g>
																				<g>
																					<g>
																						<g>
																							<path style="fill:#EB996E;" d="M407.579,229.472c0.071-0.048,0.267,0.203,0.721,0.434
																								c0.443,0.225,1.214,0.4,2.046,0.127c1.687-0.542,3.195-3.123,3.388-5.955
																								c0.099-1.43-0.145-2.806-0.605-3.955c-0.433-1.171-1.144-2.006-1.975-2.189
																								c-0.824-0.227-1.438,0.25-1.648,0.684c-0.229,0.431-0.142,0.749-0.227,0.773
																								c-0.046,0.037-0.327-0.278-0.173-0.922c0.078-0.31,0.278-0.673,0.659-0.96
																								c0.39-0.292,0.952-0.425,1.532-0.338c1.21,0.134,2.256,1.295,2.763,2.557
																								c0.572,1.27,0.881,2.817,0.769,4.424c-0.231,3.166-1.976,6.065-4.277,6.629
																								c-1.118,0.243-2.028-0.129-2.489-0.52C407.591,229.854,407.523,229.499,407.579,229.472z"/>
																						</g>
																					</g>
																				</g>
																			</g>
																		</g>
																	</g>
																</g>
															</g>
														</g>
													</g>
												</g>
											</g>
										</g>
									</g>
								</g>
							</g>
						</g>
					</g>
				</g>
				<g>
					<g>
						<g>
							<g>
								<path style="fill:#455A64;" d="M429.367,195.067c-0.18,0.236-3.623-3.488-10.901-6.685
									c-3.603-1.632-8.104-3.077-13.19-4.401c-5.076-1.361-10.754-2.575-16.605-4.393c-11.766-3.588-21.369-9.538-27.616-14.518
									c-3.137-2.497-5.511-4.713-7.062-6.326c-1.559-1.606-2.344-2.564-2.287-2.619c0.072-0.07,0.98,0.769,2.636,2.254
									c1.649,1.492,4.096,3.584,7.272,5.963c6.329,4.746,15.852,10.472,27.443,14.007c5.775,1.795,11.44,3.045,16.532,4.477
									c5.1,1.396,9.643,2.954,13.263,4.723c3.624,1.751,6.342,3.597,8.042,5.067c0.886,0.69,1.462,1.359,1.891,1.762
									C429.198,194.798,429.399,195.034,429.367,195.067z"/>
							</g>
						</g>
					</g>
				</g>
			</g>
			<g>
				<g>
					<path style="fill:#263238;" d="M406.525,238.577c-0.061-0.305-0.128-0.61-0.205-0.913L406.525,238.577z"/>
				</g>
				<g>
					<path style="fill:#263238;" d="M406.525,238.577c1.773,8.906-3.271,18.789-11.617,22.445
						c-4.804,2.105-10.549,2.407-14.458,5.905c-3.869,3.462-4.811,9.023-6.633,13.884c-1.822,4.861-8.066,13.306-13.202,12.548
						c17.214,2.46,35.66,4.863,55.323-1.439l13.6-8.193L406.525,238.577z"/>
				</g>
			</g>
			<g>
				<g>
					<g>
						<g>
							<path style="fill:#455A64;" d="M418.83,287.352c-0.038-0.024,0.246-0.57,0.821-1.587c0.628-1.134,1.45-2.617,2.474-4.466
								c2.09-3.899,5.038-9.621,7.62-17.09c2.511-7.447,4.681-16.786,3.947-27.193c-0.648-10.298-4.361-21.795-12.707-30.473
								c-8.341-8.682-18.943-13.774-28.385-18.147c-9.548-4.293-18.261-8.136-25.013-12.408
								c-6.812-4.174-11.599-8.652-14.435-12.087c-1.426-1.714-2.433-3.129-3.032-4.137c-0.616-0.998-0.921-1.531-0.882-1.555
								c0.122-0.082,1.366,2.056,4.297,5.361c2.924,3.297,7.728,7.602,14.531,11.634c6.749,4.132,15.419,7.854,25.029,12.102
								c9.494,4.333,20.257,9.428,28.833,18.344c8.598,8.939,12.37,20.792,12.958,31.289c0.681,10.626-1.628,20.093-4.275,27.574
								c-2.72,7.508-5.812,13.197-8.046,17.034c-1.121,1.921-2.046,3.379-2.691,4.355
								C419.227,286.876,418.868,287.375,418.83,287.352z"/>
						</g>
					</g>
				</g>
			</g>
		</g>
	</g>
</g>
</svg>
